<svg id="Capa_1" data-name="Capa 1" fill="#c7c7c7"
  xmlns="http://www.w3.org/2000/svg" viewBox="0 0 385.96 287.89">
  <title>advanc3d-logo</title>
  <path
    d="M517.89,491.2c3.65-13.86,7.53-27.7,12.56-41.17l1.82-5.08c.31-.84.6-1.69.92-2.53l1-2.5,4.06-10,1-2.5L540.4,425l2.23-4.92,2.22-4.92c.38-.81.74-1.64,1.13-2.45l1.2-2.42,4.81-9.66c.78-1.63,1.66-3.2,2.52-4.78l2.58-4.75c3.34-6.39,7.14-12.51,10.76-18.75,7.59-12.26,15.64-24.25,24.22-35.85a502.11,502.11,0,0,1,57.58-64.71c10.52-9.94,21.43-19.48,32.8-28.5,5.65-4.54,11.47-8.89,17.36-13.16q4.43-3.2,9-6.27c1.52-1,3.05-2,4.6-3s3.06-2,4.8-3l5.33-3.19,4.31,4.84L821,323.91,868,375.83l11.72,13,5.83,6.52L887,397c.5.56.94,1,1.54,1.76l1.69,2.05c.56.67,1.11,1.36,1.62,2.1a63.2,63.2,0,0,1,9.51,19.19,60.64,60.64,0,0,1,2.39,21.37c-.06,1.8-.34,3.58-.56,5.36s-.63,3.52-1,5.27a66.84,66.84,0,0,1-3.37,10.16,65.13,65.13,0,0,1-5,9.47,66.12,66.12,0,0,1-6.51,8.49,61.13,61.13,0,0,1-16.87,13.14,62.58,62.58,0,0,1-20.28,6.54c-1.75.23-3.51.36-5.26.52s-3.55.09-5.19.1l-8.75-.22-17.5-.45c-11.66-.36-23.32-.69-35-1.14q-35-1.26-70-3.16c-23.33-1.33-46.66-2.78-70-4.88v-2.3c23.33-2.1,46.66-3.55,70-4.88s46.65-2.32,70-3.16c11.67-.45,23.33-.78,35-1.14l17.5-.45,8.75-.22,3.55-.21c1.14-.18,2.3-.3,3.43-.5a39.75,39.75,0,0,0,23-13.25,43,43,0,0,0,4-5.45,47.77,47.77,0,0,0,3-6.07,40.86,40.86,0,0,0,3-13.11,39.3,39.3,0,0,0-1.33-13.23,40.89,40.89,0,0,0-5.76-12.1,14.77,14.77,0,0,0-1-1.39l-1.06-1.37c-.29-.41-.83-1-1.29-1.57l-1.4-1.68-5.63-6.7-11.21-13.44L806.37,336.6l-90.19-107,9.64,1.65c-1.35.75-2.9,1.67-4.36,2.55s-3,1.81-4.45,2.74q-4.43,2.77-8.8,5.71c-5.82,3.93-11.59,8-17.23,12.18-11.33,8.37-22.27,17.31-32.85,26.66a513.91,513.91,0,0,0-58.64,61.18q-13.29,16.57-25.14,34.25c-3.79,6-7.77,11.86-11.3,18l-2.72,4.57c-.91,1.53-1.83,3-2.66,4.61L552.55,413l-1.28,2.33c-.41.79-.79,1.58-1.2,2.38l-2.38,4.76-2.39,4.76-1.19,2.38L543,432.05l-4.42,9.7-1.11,2.42c-.36.81-.68,1.64-1,2.46l-2,4.93c-5.58,13.1-10.06,26.63-14.31,40.24Z"
    transform="translate(-517.89 -214.61)" />
  <line class="cls-1" x1="203.86" y1="277.39" x2="203.36" y2="10.39" />
  <polygon points="192.36 277.41 203.36 10.39 215.36 277.37 192.36 277.41" />
  <line class="cls-1" x1="93.11" y1="161.89" x2="203.36" y2="161.89" />
  <path
    d="M611,375.65c9.19-1.35,18.38-2.36,27.56-3.4s18.38-1.86,27.57-2.55c4.59-.34,9.18-1.07,13.78-1.62a60.48,60.48,0,0,1,13.78-.08,97.8,97.8,0,0,1,13.78,2.49,62.84,62.84,0,0,1,13.78,5.16v1.7a63.35,63.35,0,0,1-13.78,5.16A97.8,97.8,0,0,1,693.69,385a59.91,59.91,0,0,1-13.78-.09c-4.6-.54-9.19-1.27-13.78-1.61q-13.78-1-27.57-2.55c-9.18-1-18.37-2.06-27.56-3.4Z"
    transform="translate(-517.89 -214.61)" />
</svg>