<?xml version="1.0" standalone="no"?>
<!DOCTYPE svg PUBLIC "-//W3C//DTD SVG 20010904//EN" "http://www.w3.org/TR/2001/REC-SVG-20010904/DTD/svg10.dtd">
<svg version="1.0" xmlns="http://www.w3.org/2000/svg"
  width="64.000000pt" height="64.000000pt" viewBox="0 0 64.000000 64.000000"
  preserveAspectRatio="xMidYMid meet">

  <g transform="translate(0.000000,64.000000) scale(0.100000,-0.100000)"
    fill="#fff" stroke="none">
    <path
      d="M229 540 c-9 -5 -20 -21 -23 -35 -6 -23 -11 -25 -60 -25 -61 0 -79
-14 -74 -57 3 -24 15 -34 83 -70 90 -48 95 -49 95 -28 0 21 138 22 146 1 5
-12 23 -6 90 27 78 39 84 44 84 72 0 43 -16 55 -75 55 -47 0 -51 3 -65 33
l-15 32 -85 2 c-47 2 -92 -2 -101 -7z m181 -40 c0 -19 -7 -20 -90 -20 -68 0
-90 3 -90 13 0 24 12 27 97 27 76 0 83 -2 83 -20z" />
    <path
      d="M70 242 c0 -86 4 -132 12 -140 17 -17 459 -17 476 0 8 8 12 53 12
139 l0 126 -84 -44 c-57 -29 -87 -51 -92 -66 -12 -39 -35 -57 -74 -57 -40 0
-70 24 -70 56 0 14 -25 32 -90 67 l-90 48 0 -129z" />
    <path
      d="M270 280 c0 -33 4 -42 25 -52 19 -8 31 -8 50 0 21 10 25 19 25 52 l0
40 -50 0 -50 0 0 -40z" />
  </g>
</svg>