<?xml version="1.0" standalone="no"?>
<!DOCTYPE svg PUBLIC "-//W3C//DTD SVG 20010904//EN"
 "http://www.w3.org/TR/2001/REC-SVG-20010904/DTD/svg10.dtd">
<svg version="1.0" xmlns="http://www.w3.org/2000/svg"
 width="48.000000pt" height="48.000000pt" viewBox="0 0 48.000000 48.000000"
 preserveAspectRatio="xMidYMid meet">

<g transform="translate(0.000000,48.000000) scale(0.100000,-0.100000)"
fill="#c7c7c7" stroke="none">
<path d="M182 405 c-14 -18 -30 -25 -54 -25 -19 0 -39 -5 -46 -12 -17 -17 -17
-239 0 -256 17 -17 299 -17 316 0 17 17 17 239 0 256 -7 7 -27 12 -46 12 -24
0 -40 7 -54 25 -15 19 -29 25 -58 25 -29 0 -43 -6 -58 -25z m88 -15 c0 -5 -13
-10 -30 -10 -16 0 -30 5 -30 10 0 6 14 10 30 10 17 0 30 -4 30 -10z m110 -99
c0 -71 0 -71 -140 -71 -140 0 -140 0 -140 71 l0 59 140 0 140 0 0 -59z m0
-128 l0 -33 -140 0 -140 0 0 33 0 32 140 0 140 0 0 -32z"/>
<path d="M142 268 c6 -18 28 -21 28 -4 0 9 -7 16 -16 16 -9 0 -14 -5 -12 -12z"/>
<path d="M310 264 c0 -17 22 -14 28 4 2 7 -3 12 -12 12 -9 0 -16 -7 -16 -16z"/>
</g>
</svg>
