<svg xmlns="http://www.w3.org/2000/svg" viewBox="0 0 777.04 377" fill="white">
  <defs>
    <style>.cls-1{fill:none;stroke:#fff;stroke-miterlimit:10;stroke-width:25px;}</style>
  </defs>
  <title>laruinarecords-logo</title>
  <g id="Capa_3" data-name="Capa 3">
    <path class="cls-1" d="M251,657" transform="translate(-152.48 -291)" />
    <path class="cls-1" d="M186,668" transform="translate(-152.48 -291)" />
    <path
      d="M166.75,480c2,15.67,3.47,31.33,5,47l1.07,11.75,1,11.75.88,11.75L175.5,574c.5,7.83,1.58,15.67,2.38,23.5A119.06,119.06,0,0,1,178,621a187.3,187.3,0,0,1-3.67,23.5c-.88,3.92-1.89,7.83-3.12,11.75A90.93,90.93,0,0,1,166.75,668h-2.5a90.93,90.93,0,0,1-4.46-11.75c-1.23-3.92-2.24-7.83-3.12-11.75A187.3,187.3,0,0,1,153,621a118.3,118.3,0,0,1,.13-23.5c.79-7.83,1.87-15.67,2.37-23.5l.81-11.75.88-11.75,1-11.75L159.25,527c1.53-15.67,3-31.33,5-47Z"
      transform="translate(-152.48 -291)" />
    <path
      d="M831.25,312c2,29.58,3.47,59.17,5,88.75l2.06,44.38L840,489.5c.51,14.79,1.57,29.58,2.38,44.38a423.67,423.67,0,0,1,.12,44.37q-1.1,22.18-3.67,44.38c-.88,7.39-1.89,14.79-3.12,22.18s-2.6,14.79-4.46,22.19h-2.5c-1.86-7.4-3.22-14.79-4.46-22.19s-2.24-14.79-3.12-22.19q-2.61-22.18-3.67-44.37a421.16,421.16,0,0,1,.13-44.38c.8-14.79,1.86-29.58,2.37-44.37l1.69-44.38,2.06-44.37c1.53-29.58,3-59.17,5-88.75Z"
      transform="translate(-152.48 -291)" />
    <path class="cls-1" d="M895,668" transform="translate(-152.48 -291)" />
    <path
      d="M917.75,480c2,15.67,3.47,31.33,5,47l1.07,11.75,1,11.75.88,11.75L926.5,574c.5,7.83,1.58,15.67,2.38,23.5A119.06,119.06,0,0,1,929,621a187.3,187.3,0,0,1-3.67,23.5c-.88,3.92-1.89,7.83-3.12,11.75A90.93,90.93,0,0,1,917.75,668h-2.5a90.93,90.93,0,0,1-4.46-11.75c-1.23-3.92-2.24-7.83-3.12-11.75A187.3,187.3,0,0,1,904,621a118.3,118.3,0,0,1,.13-23.5c.79-7.83,1.87-15.67,2.37-23.5l.81-11.75.88-11.75,1-11.75L910.25,527c1.53-15.67,3-31.33,5-47Z"
      transform="translate(-152.48 -291)" />
    <path
      d="M916.75,480c2,15.67,3.47,31.33,5,47l1.07,11.75,1,11.75.88,11.75L925.5,574c.5,7.83,1.58,15.67,2.38,23.5A119.06,119.06,0,0,1,928,621a187.3,187.3,0,0,1-3.67,23.5c-.88,3.92-1.89,7.83-3.12,11.75A90.93,90.93,0,0,1,916.75,668h-2.5a90.93,90.93,0,0,1-4.46-11.75c-1.23-3.92-2.24-7.83-3.12-11.75A187.3,187.3,0,0,1,903,621a118.3,118.3,0,0,1,.13-23.5c.79-7.83,1.87-15.67,2.37-23.5l.81-11.75.88-11.75,1-11.75L909.25,527c1.53-15.67,3-31.33,5-47Z"
      transform="translate(-152.48 -291)" />
    <path
      d="M916.75,480c2,15.67,3.47,31.33,5,47l1.07,11.75,1,11.75.88,11.75L925.5,574c.5,7.83,1.58,15.67,2.38,23.5A119.06,119.06,0,0,1,928,621a187.3,187.3,0,0,1-3.67,23.5c-.88,3.92-1.89,7.83-3.12,11.75A90.93,90.93,0,0,1,916.75,668h-2.5a90.93,90.93,0,0,1-4.46-11.75c-1.23-3.92-2.24-7.83-3.12-11.75A187.3,187.3,0,0,1,903,621a118.3,118.3,0,0,1,.13-23.5c.79-7.83,1.87-15.67,2.37-23.5l.81-11.75.88-11.75,1-11.75L909.25,527c1.53-15.67,3-31.33,5-47Z"
      transform="translate(-152.48 -291)" />
    <line class="cls-1" x1="386.02" y1="12.5" x2="612.52" y2="366" />
    <line class="cls-1" x1="386.02" y1="12.5" x2="159.38" y2="365.7" />
    <path class="cls-1" d="M895,658c0-195.78-158.72-354.5-354.5-354.5S186,462.22,186,658"
      transform="translate(-152.48 -291)" />
    <line class="cls-1" x1="764.52" y1="364.5" x2="12.52" y2="364.5" />
    <path class="cls-1" d="M186,668" transform="translate(-152.48 -291)" />
    <path class="cls-1" d="M186,480" transform="translate(-152.48 -291)" />
    <path class="cls-1" d="M895,657.33" transform="translate(-152.48 -291)" />
    <path class="cls-1" d="M895,479.33" transform="translate(-152.48 -291)" />
    <path class="cls-1" d="M251,658" transform="translate(-152.48 -291)" />
    <path class="cls-1" d="M251,303" transform="translate(-152.48 -291)" />
    <path class="cls-1" d="M540,657" transform="translate(-152.48 -291)" />
    <path class="cls-1" d="M540,479" transform="translate(-152.48 -291)" />
    <path class="cls-1" d="M830,658" transform="translate(-152.48 -291)" />
    <path class="cls-1" d="M830,303" transform="translate(-152.48 -291)" />
    <path class="cls-1" d="M685.5,658.5" transform="translate(-152.48 -291)" />
    <path class="cls-1" d="M486,303" transform="translate(-152.48 -291)" />
    <path class="cls-1" d="M531.75,479.36" transform="translate(-152.48 -291)" />
    <path class="cls-1" d="M585.75,303.36" transform="translate(-152.48 -291)" />
    <path class="cls-1" d="M251.5,669" transform="translate(-152.48 -291)" />
    <path class="cls-1" d="M251.5,313" transform="translate(-152.48 -291)" />
    <path
      d="M251.75,303.5c2,29.5,3.47,59,5,88.5l2.06,44.25,1.69,44.25c.51,14.75,1.57,29.5,2.38,44.25A421.38,421.38,0,0,1,263,569q-1.1,22.13-3.67,44.25c-.88,7.38-1.89,14.75-3.12,22.13s-2.6,14.75-4.46,22.12h-2.5c-1.86-7.37-3.22-14.75-4.46-22.12s-2.24-14.75-3.12-22.13Q239.06,591.13,238,569a418.69,418.69,0,0,1,.13-44.25c.8-14.75,1.86-29.5,2.37-44.25l1.69-44.25L244.25,392c1.53-29.5,3-59,5-88.5Z"
      transform="translate(-152.48 -291)" />
  </g>
</svg>