<svg xmlns="http://www.w3.org/2000/svg" viewBox="0 0 456.78 379.68"><defs><style>.cls-1{fill:none;stroke:#000;stroke-miterlimit:10;stroke-width:25px;}</style></defs><title>laruinatv-logo</title><g id="Capa_3" data-name="Capa 3"><path class="cls-1" d="M251,657" transform="translate(-310.69 -290.32)"/><path class="cls-1" d="M895,668" transform="translate(-310.69 -290.32)"/><line class="cls-1" x1="227.81" y1="13.18" x2="444.81" y2="361.18"/><line class="cls-1" x1="227.81" y1="13.18" x2="11.81" y2="361.18"/><path d="M767.47,387.15c-2-1.08-4-2.22-6-3.19a25,25,0,0,0-5.88-2.14l-.56-.36q-21.09-10.27-42.21-18.38l-2.64-1a22.29,22.29,0,0,1-2.5-1.23c-1.6-.93-3.09-2.06-4.67-3l-1.19-.71-1.23-.66-2.46-1.3-4.91-2.61c-3.29-1.72-6.66-3.27-10-4.92s-6.76-3-10.14-4.59a336.9,336.9,0,0,0-85.47-24.18,340.22,340.22,0,0,0-175,20.79l.95-.43c-.46.22-.91.43-1.41.63s-1,.38-1.61.54a16.93,16.93,0,0,1-3.3.59c-1,.08-1.6.05-1.82.06s.05,0,.52,0a9.11,9.11,0,0,0,1.62-.36c.24-.08.54-.21.6-.23l.17-.08-.16.08-1.65.76-6.52,3c-4.23,2-8.43,4-12.58,6.08q-3.13,1.54-6.2,3.15c-2.07,1.06-4.12,2.12-6.13,3.24-1,.56-2,1.19-3,1.82a23.33,23.33,0,0,1-3,1.73c-1,.5-2.17.84-3.26,1.24l-3.3,1.18c-4.4,1.59-8.75,3.31-13.13,5s-8.68,3.63-13,5.56c-8.66,3.89-17.21,8.23-25.78,13a183.58,183.58,0,0,1,18.48-23.06c1.71-1.78,3.4-3.62,5.17-5.37s3.53-3.51,5.36-5.19c3.61-3.44,7.36-6.73,11.17-9.95l2.87-2.41a28.84,28.84,0,0,1,2.95-2.26,72.28,72.28,0,0,1,6.57-3.33c1.1-.56,2.17-1.16,3.25-1.73l3.25-1.69q3.25-1.7,6.53-3.31c4.36-2.18,8.74-4.28,13.12-6.34l6.44-3,1.59-.73.82-.37c.33-.16.92-.38,1.43-.56a17,17,0,0,1,3.36-.74,18.8,18.8,0,0,1,2.31-.13c.37,0,.38,0-.05,0a7.56,7.56,0,0,0-1.54.28,7,7,0,0,0-.77.25c-.22.09-.4.17-.59.27l.95-.43A364.41,364.41,0,0,1,683,320.05c3.63,1.65,7.3,3.2,10.9,4.94s7.19,3.44,10.73,5.29l10.56,5.62c1.77.93,3.61,1.72,5.35,2.7a26.21,26.21,0,0,1,4.83,3.59A261.77,261.77,0,0,1,759,376.54l-.56-.36a28.1,28.1,0,0,1,5.14,5.28C765,383.32,766.2,385.25,767.47,387.15Z" transform="translate(-310.69 -290.32)"/><line class="cls-1" x1="455.31" y1="367.18" x2="1.31" y2="366.18"/><path class="cls-1" d="M895,479.33" transform="translate(-310.69 -290.32)"/><path class="cls-1" d="M251,658" transform="translate(-310.69 -290.32)"/><path class="cls-1" d="M251,303" transform="translate(-310.69 -290.32)"/><path class="cls-1" d="M540,657" transform="translate(-310.69 -290.32)"/><path class="cls-1" d="M540,479" transform="translate(-310.69 -290.32)"/><path class="cls-1" d="M830,303" transform="translate(-310.69 -290.32)"/><path class="cls-1" d="M685.5,658.5" transform="translate(-310.69 -290.32)"/><path class="cls-1" d="M486,303" transform="translate(-310.69 -290.32)"/><path class="cls-1" d="M531.75,479.36" transform="translate(-310.69 -290.32)"/><path class="cls-1" d="M585.75,303.36" transform="translate(-310.69 -290.32)"/><path class="cls-1" d="M251.5,669" transform="translate(-310.69 -290.32)"/><path class="cls-1" d="M251.5,313" transform="translate(-310.69 -290.32)"/></g></svg>