<?xml version="1.0" standalone="no"?>
<!DOCTYPE svg PUBLIC "-//W3C//DTD SVG 20010904//EN"
 "http://www.w3.org/TR/2001/REC-SVG-20010904/DTD/svg10.dtd">
<svg version="1.0" xmlns="http://www.w3.org/2000/svg"
 width="512.000000pt" height="512.000000pt" viewBox="0 0 512.000000 512.000000"
 preserveAspectRatio="xMidYMid meet">

<g transform="translate(0.000000,512.000000) scale(0.100000,-0.100000)"
fill="#fff" stroke="none">
<path d="M1287 5109 c-126 -30 -238 -141 -273 -271 -21 -79 -21 -4477 0 -4556
29 -108 108 -201 214 -250 l57 -27 1270 0 1270 0 67 33 c82 40 157 119 190
200 l23 57 0 2265 0 2265 -23 57 c-27 67 -97 148 -158 184 -95 56 -48 54
-1374 53 -674 -1 -1242 -5 -1263 -10z m2543 -2549 l0 -1570 -1275 0 -1275 0 0
1570 0 1570 1275 0 1275 0 0 -1570z m-1157 -1858 c57 -31 101 -89 118 -156 24
-98 -25 -208 -118 -263 -69 -40 -167 -40 -236 0 -92 55 -142 165 -118 262 41
162 208 236 354 157z"/>
</g>
</svg>
