<?xml version="1.0" standalone="no"?>
<!DOCTYPE svg PUBLIC "-//W3C//DTD SVG 20010904//EN"
 "http://www.w3.org/TR/2001/REC-SVG-20010904/DTD/svg10.dtd">
<svg version="1.0" xmlns="http://www.w3.org/2000/svg"
 width="512.000000pt" height="512.000000pt" viewBox="0 0 512.000000 512.000000"
 preserveAspectRatio="xMidYMid meet">

<g transform="translate(0.000000,512.000000) scale(0.100000,-0.100000)"
fill="#c7c7c7" stroke="none">
<path d="M1840 4465 c-91 -19 -144 -39 -223 -86 -122 -72 -243 -213 -284 -330
l-17 -46 -93 -6 c-285 -19 -480 -183 -555 -467 l-23 -85 0 -1070 c0 -1211 -6
-1123 83 -1305 39 -81 60 -109 136 -185 74 -74 109 -100 184 -139 51 -26 136
-59 190 -74 l97 -27 960 -3 c666 -2 990 0 1058 8 136 16 236 43 342 95 222
107 344 287 358 524 2 42 4 45 57 74 170 91 295 250 347 438 17 59 18 141 18
1099 l0 1035 -27 80 c-38 112 -91 197 -174 279 -82 83 -167 136 -279 174 l-80
27 -1005 2 c-808 1 -1018 -1 -1070 -12z m2059 -324 c77 -24 149 -77 194 -143
71 -104 68 -54 65 -1149 l-3 -984 -31 -65 c-39 -83 -101 -145 -184 -184 l-65
-31 -995 0 -995 0 -65 31 c-83 39 -145 101 -184 184 l-31 65 -3 984 c-3 1095
-6 1045 65 1149 44 65 116 119 191 143 53 17 117 18 1019 18 914 1 964 0 1022
-18z m-2617 -1388 l3 -928 28 -80 c82 -233 246 -390 485 -462 52 -16 140 -17
995 -20 l937 -4 0 -22 c-1 -63 -81 -162 -168 -206 -22 -11 -73 -31 -113 -43
l-74 -23 -969 -3 c-1080 -3 -1067 -4 -1203 63 -121 60 -206 173 -233 310 -8
43 -10 343 -8 1080 3 968 4 1023 22 1070 45 122 139 192 258 194 l37 1 3 -927z"/>
<path d="M2490 3712 c-108 -54 -108 -213 0 -276 33 -20 55 -21 363 -26 l327
-5 -561 -560 c-308 -308 -567 -572 -575 -587 -46 -87 13 -209 110 -225 92 -15
64 -38 683 580 l572 571 3 -330 c3 -311 4 -331 24 -364 63 -108 218 -109 275
0 18 33 19 68 19 580 l0 545 -23 39 c-45 79 -23 76 -637 76 -499 0 -548 -2
-580 -18z"/>
</g>
</svg>
