<svg xmlns="http://www.w3.org/2000/svg" color="white" fill="currentColor" viewBox="0 0 64 64" width="40px" height="40px"><path d="M 21.306641 4.0351562 C 20.762641 3.9811563 20.264125 4.3699219 20.203125 4.9199219 L 19.982422 6.9082031 C 19.922422 7.4562031 20.316234 7.9497187 20.865234 8.0117188 C 20.903234 8.0157187 20.941516 8.0175781 20.978516 8.0175781 C 21.480516 8.0175781 21.913703 7.6409062 21.970703 7.1289062 L 22.191406 5.140625 C 22.251406 4.592625 21.855641 4.0971563 21.306641 4.0351562 z M 15.626953 4.0800781 C 15.078953 4.1480781 14.691766 4.6473125 14.759766 5.1953125 L 15.007812 7.1816406 C 15.070813 7.6876406 15.501047 8.0566406 15.998047 8.0566406 C 16.039047 8.0566406 16.081047 8.0538281 16.123047 8.0488281 C 16.671047 7.9808281 17.058234 7.4815938 16.990234 6.9335938 L 16.742188 4.9472656 C 16.674187 4.3982656 16.170953 4.0150781 15.626953 4.0800781 z M 26.478516 5.296875 C 26.08875 5.3101406 25.725875 5.54975 25.578125 5.9375 L 24.863281 7.8046875 C 24.666281 8.3206875 24.923453 8.8987031 25.439453 9.0957031 C 25.557453 9.1407031 25.679828 9.1621094 25.798828 9.1621094 C 26.200828 9.1621094 26.578469 8.9175312 26.730469 8.5195312 L 27.447266 6.6523438 C 27.644266 6.1363437 27.387094 5.5583281 26.871094 5.3613281 C 26.742094 5.3123281 26.608438 5.2924531 26.478516 5.296875 z M 10.523438 5.3417969 C 10.393719 5.3346094 10.261109 5.3533906 10.130859 5.4003906 C 9.6108594 5.5863906 9.3403438 6.1577344 9.5273438 6.6777344 L 10.201172 8.5605469 C 10.347172 8.9695469 10.732578 9.2246094 11.142578 9.2246094 C 11.254578 9.2246094 11.369469 9.2040625 11.480469 9.1640625 C 12.000469 8.9780625 12.271938 8.4057188 12.085938 7.8867188 L 11.410156 6.0039062 C 11.269906 5.6139063 10.912594 5.3633594 10.523438 5.3417969 z M 31.189453 7.9921875 C 30.935578 8.0233125 30.693938 8.1511406 30.523438 8.3691406 L 29.294922 9.9472656 C 28.954922 10.382266 29.03275 11.011563 29.46875 11.351562 C 29.65075 11.493562 29.867031 11.5625 30.082031 11.5625 C 30.379031 11.5625 30.674094 11.430734 30.871094 11.177734 L 32.099609 9.5996094 C 32.439609 9.1646094 32.361781 8.5353125 31.925781 8.1953125 C 31.708781 8.0268125 31.443328 7.9610625 31.189453 7.9921875 z M 17.652344 11.097656 C 17.270321 11.111141 16.884118 11.146721 16.496094 11.197266 C 13.391902 11.60162 10.132118 13.043431 8.4453125 14.167969 A 1.0001 1.0001 0 0 0 8.2929688 15.707031 C 11.829943 19.244006 10.880903 25.171725 10.251953 28.330078 C 10.240923 28.326378 10.233796 28.322079 10.222656 28.318359 C 9.6232878 28.11837 8.8862139 27.911263 8.1171875 27.71875 C 6.5791347 27.333724 5.0282222 27 4 27 C 2.8717778 27 1.8901402 27.702719 1.3261719 28.662109 C 0.76220351 29.6215 0.5 30.846234 0.5 32.251953 C 0.5 33.635286 0.77564168 34.816452 1.1289062 35.734375 C 1.4821709 36.652298 1.8666635 37.280726 2.2929688 37.707031 A 1.0001 1.0001 0 0 0 3.3164062 37.949219 C 3.3164062 37.949219 6.0405359 37.031027 9.9179688 37.853516 C 13.795402 38.676001 18.763636 41.215435 23.142578 48.513672 A 1.0001 1.0001 0 0 0 24.984375 48.179688 C 25.401762 45.892756 25.17437 43.54696 24.751953 41.59375 C 25.332237 41.638018 25.781528 41.641611 26.132812 41.648438 C 26.301925 42.36018 26.512275 43.41996 26.5625 44.833984 C 26.62239 46.520196 26.48393 48.388035 26.050781 49.683594 A 1.0001 1.0001 0 0 0 26.757812 50.970703 C 30.672186 51.946361 34.904951 53.5149 39.257812 58.335938 C 40.536524 59.752179 42.084545 60.268255 43.390625 59.837891 C 44.696705 59.407526 45.599243 58.322489 46.345703 57.138672 C 47.838623 54.771037 48.731064 51.656189 48.949219 51.003906 C 48.835448 51.344081 49.013199 50.954086 49.396484 50.625 C 49.779773 50.295916 50.341169 49.860287 51.007812 49.347656 C 52.341102 48.322396 54.101487 46.980807 55.859375 45.388672 C 59.375143 42.204355 63 37.98756 63 33 A 1.0001 1.0001 0 0 0 61.251953 32.335938 C 59.319471 34.50998 55.847404 37.725114 52.470703 39.833984 C 50.782353 40.888419 49.112652 41.660723 47.746094 41.927734 C 46.788671 42.114805 46.086586 41.987794 45.472656 41.703125 C 46.266588 40.777691 47.15064 39.740862 47.853516 38.585938 C 48.318319 37.822198 48.698523 37.211066 48.791016 36.423828 C 48.814136 36.227019 48.820346 35.998723 48.722656 35.722656 C 48.624966 35.446589 48.365828 35.136675 48.066406 35 C 47.467562 34.726651 47.04577 34.904073 46.628906 35.070312 A 1.0001 1.0001 0 0 0 46.628906 35.072266 C 45.40801 35.560054 44.612455 36.01396 43.972656 36.298828 C 43.332858 36.583696 42.8665 36.728516 42 36.728516 C 41.290167 36.728516 40.241116 36.384653 39.431641 35.628906 C 38.622165 34.87316 38 33.742685 38 32 C 38 31.062282 37.445199 30.237667 36.701172 29.730469 C 36.321079 29.471362 35.886741 29.275662 35.412109 29.136719 C 35.79756 28.040288 35.806374 26.835453 35.554688 25.666016 C 35.192743 23.98428 34.345911 22.305246 33.300781 20.740234 C 32.255651 19.175223 31.006855 17.729203 29.791016 16.566406 C 28.575176 15.403609 27.432295 14.524381 26.394531 14.080078 A 1.0001 1.0001 0 0 0 25.011719 15.148438 C 26.267693 23.521597 20.177746 30.883201 18.8125 32.425781 L 17.310547 31.423828 C 17.675139 30.830541 18.608546 29.368706 19.904297 26.615234 C 21.432127 23.368539 23 19.309645 23 15.751953 C 23 13.870543 22.148205 12.42311 20.865234 11.730469 C 20.223749 11.384148 19.519331 11.201157 18.78125 11.128906 C 18.412209 11.092781 18.034367 11.084171 17.652344 11.097656 z M 35.308594 11.556641 C 35.052844 11.554516 34.797109 11.65025 34.599609 11.84375 L 33.173828 13.244141 C 32.779828 13.632141 32.773156 14.264203 33.160156 14.658203 C 33.356156 14.857203 33.614047 14.957031 33.873047 14.957031 C 34.126047 14.957031 34.379219 14.862875 34.574219 14.671875 L 36.001953 13.269531 C 36.395953 12.881531 36.400672 12.249469 36.013672 11.855469 C 35.820172 11.658469 35.564344 11.558766 35.308594 11.556641 z M 17.708984 13.103516 C 18.623631 13.07985 19.401681 13.212559 19.916016 13.490234 C 20.601795 13.860468 21 14.383363 21 15.751953 C 21 18.694261 19.567826 22.635411 18.095703 25.763672 C 16.62358 28.891933 15.154297 31.21875 15.154297 31.21875 A 1.0001 1.0001 0 0 0 15.445312 32.583984 L 18.445312 34.583984 A 1.0001 1.0001 0 0 0 19.716797 34.449219 C 19.716797 34.449219 27.291031 26.659272 27.070312 17.011719 C 27.54072 17.362573 27.877717 17.504376 28.408203 18.011719 C 29.518926 19.073984 30.685599 20.425371 31.636719 21.849609 C 32.587839 23.273848 33.317492 24.77511 33.599609 26.085938 C 33.881727 27.396764 33.749628 28.439533 33.099609 29.279297 C 33.006657 29.398973 32.905579 29.513632 32.792969 29.623047 C 32.680358 29.732462 32.556215 29.836634 32.416016 29.9375 A 1.0001 1.0001 0 0 0 32.412109 29.939453 C 27.040324 33.833509 21.658203 35.791016 21.658203 35.791016 A 1.0001 1.0001 0 0 0 21 36.722656 A 1.0001 1.0001 0 0 0 21 36.730469 A 1.0001 1.0001 0 0 0 21.119141 37.226562 C 21.119141 37.226562 21.879313 38.630648 22.490234 40.740234 C 22.841512 41.948869 23.038215 43.495576 23.095703 45.076172 C 18.87126 39.297783 14.170161 36.710633 10.332031 35.896484 C 6.7625779 35.139328 4.4087296 35.655191 3.4863281 35.894531 C 3.3360547 35.676666 3.1830644 35.503403 2.9960938 35.017578 C 2.7243583 34.311501 2.5 33.36862 2.5 32.251953 C 2.5 31.107672 2.7377965 30.204891 3.0488281 29.675781 C 3.3598598 29.146672 3.6282222 29 4 29 C 4.4717778 29 6.1708653 29.292229 7.6328125 29.658203 C 8.3637861 29.84119 9.0642154 30.041412 9.5898438 30.216797 C 9.8526578 30.304487 10.073318 30.386405 10.216797 30.449219 C 10.360276 30.512029 10.451324 30.617302 10.292969 30.458984 A 1.0001 1.0001 0 0 0 11.980469 29.947266 C 12.426425 27.717486 14.350377 20.396849 10.527344 15.353516 C 12.092036 14.502327 14.523199 13.47026 16.753906 13.179688 C 17.084632 13.136607 17.404102 13.111404 17.708984 13.103516 z M 38.943359 15.707031 C 38.691609 15.660281 38.421359 15.710687 38.193359 15.867188 L 36.544922 17 C 36.089922 17.314 35.974109 17.935625 36.287109 18.390625 C 36.481109 18.673625 36.793328 18.824219 37.111328 18.824219 C 37.307328 18.824219 37.504734 18.768438 37.677734 18.648438 L 39.326172 17.515625 C 39.781172 17.201625 39.896984 16.58 39.583984 16.125 C 39.427984 15.8975 39.195109 15.753781 38.943359 15.707031 z M 41.332031 20.585938 C 41.202469 20.575406 41.069 20.589813 40.9375 20.632812 L 39.039062 21.261719 C 38.514062 21.435719 38.230297 22.001391 38.404297 22.525391 C 38.543297 22.945391 38.934516 23.210938 39.353516 23.210938 C 39.457516 23.210938 39.564922 23.194156 39.669922 23.160156 L 41.566406 22.53125 C 42.091406 22.35725 42.375172 21.791578 42.201172 21.267578 C 42.070672 20.874578 41.720719 20.617531 41.332031 20.585938 z M 34.238281 31 C 34.785171 31.082985 35.3067 31.201068 35.576172 31.384766 C 35.924644 31.622317 36 31.801718 36 32 C 36 34.244315 36.877835 35.97834 38.068359 37.089844 C 39.258884 38.201347 40.709833 38.728516 42 38.728516 C 43.1335 38.728516 44.006908 38.472382 44.787109 38.125 C 45.207014 37.938039 45.728236 37.698491 46.177734 37.480469 C 46.158974 37.512439 46.165994 37.512872 46.146484 37.544922 C 45.326091 38.892946 43.925269 40.662769 43.294922 41.291016 A 1.0001 1.0001 0 0 0 43.294922 42.708984 C 44.568111 43.978036 46.370465 44.234207 48.128906 43.890625 C 49.887348 43.547043 51.717647 42.66269 53.529297 41.53125 C 56.126866 39.908975 58.472481 37.845091 60.46875 35.904297 C 59.442547 38.838153 57.050026 41.61082 54.515625 43.90625 C 52.836013 45.42749 51.127648 46.732386 49.789062 47.761719 C 49.119771 48.276385 48.544446 48.720463 48.09375 49.107422 C 47.643054 49.494381 47.289552 49.655216 47.050781 50.369141 C 46.768936 51.211858 45.911377 54.07865 44.654297 56.072266 C 44.393964 56.48513 44.118457 56.829834 43.845703 57.123047 C 43.369638 56.992934 42.828029 56.236039 42.5 55.251953 C 42 53.751953 44 52.751953 44.5 55.251953 C 45.5 53.751953 45 50.751953 43 50.751953 C 40.5 50.751953 41.5 54.251953 41.5 54.251953 C 41.5 54.251953 40.529 53.780953 39.5 53.251953 C 41.419748 55.930794 41.980286 57.283353 41.832031 57.884766 C 41.531918 57.747426 41.188805 57.488794 40.742188 56.994141 C 36.427521 52.215409 32.032459 50.362285 28.152344 49.300781 C 28.364372 48.362496 28.486619 47.377965 28.539062 46.398438 C 30.163639 47.733716 33.20797 48.535611 34 46.753906 C 36 42.253906 39.5 42.753906 41 42.753906 C 36 40.253906 34 44.253906 33 44.753906 C 32 45.253906 30.5 43.753906 29.5 42.753906 C 28.225 41.478906 29 40.753906 30 39.753906 C 23.5 39.753906 24.995953 36.49175 26.001953 36.09375 L 25.949219 36.103516 C 27.906277 35.175345 30.569416 33.754432 33.583984 31.5625 L 33.587891 31.560547 C 33.828847 31.386323 34.0422 31.19641 34.238281 31 z M 30.992188 40.994141 A 0.750075 0.750075 0 0 0 30.46875 42.283203 L 31.46875 43.283203 A 0.75130096 0.75130096 0 1 0 32.53125 42.220703 L 31.53125 41.220703 A 0.750075 0.750075 0 0 0 30.992188 40.994141 z"/></svg>