<?xml version="1.0" standalone="no"?>
<!DOCTYPE svg PUBLIC "-//W3C//DTD SVG 20010904//EN"
 "http://www.w3.org/TR/2001/REC-SVG-20010904/DTD/svg10.dtd">
<svg version="1.0" xmlns="http://www.w3.org/2000/svg"
 width="24.000000pt" height="24.000000pt" viewBox="0 0 60.000000 60.000000"
 preserveAspectRatio="xMidYMid meet">

<g transform="translate(0.000000,50.000000) scale(0.100000,-0.100000)"
fill="#fff" stroke="none">
<path d="M188 424 c34 -31 62 -63 62 -73 0 -9 -52 -68 -115 -131 -63 -63 -115
-119 -115 -124 0 -14 51 -66 65 -66 5 0 62 52 125 115 63 63 120 115 127 115
6 0 13 -12 15 -27 2 -14 15 -35 31 -46 l27 -21 40 39 c22 22 40 44 40 50 0 16
-41 52 -65 57 -11 2 -21 12 -23 23 -2 11 -27 43 -55 72 -53 54 -100 73 -184
73 l-36 0 61 -56z m65 26 c23 0 127 -98 127 -119 0 -21 19 -41 39 -41 8 0 23
-8 33 -17 18 -16 17 -18 -14 -50 -30 -31 -33 -32 -50 -16 -10 9 -18 23 -18 31
0 9 -7 23 -16 33 -13 14 -20 16 -34 6 -30 -18 -60 15 -53 58 5 29 -1 39 -38
81 -39 42 -41 47 -19 41 14 -4 33 -7 43 -7z m15 -183 l22 -23 -100 -99 -99
-99 -26 24 -26 24 98 98 c54 54 100 98 104 98 3 0 15 -10 27 -23z"/>
</g>
</svg>
