<?xml version="1.0" standalone="no"?>
<!DOCTYPE svg PUBLIC "-//W3C//DTD SVG 20010904//EN"
 "http://www.w3.org/TR/2001/REC-SVG-20010904/DTD/svg10.dtd">
<svg version="1.0" xmlns="http://www.w3.org/2000/svg"
 width="512.000000pt" height="512.000000pt" viewBox="0 0 512.000000 512.000000"
 preserveAspectRatio="xMidYMid meet">

<g transform="translate(0.000000,512.000000) scale(0.100000,-0.100000)"
fill="#c7c7c7" stroke="none">
<path d="M600 4471 c-76 -24 -157 -98 -181 -167 -12 -32 -14 -275 -14 -1449 0
-1346 1 -1412 18 -1443 10 -19 17 -35 15 -36 -92 -52 -124 -86 -346 -375 -68
-87 -96 -151 -88 -195 9 -50 64 -108 129 -137 l52 -24 2375 0 2375 0 57 28
c101 49 144 125 119 205 -6 21 -72 113 -152 212 -163 203 -202 246 -244 267
-16 9 -31 17 -33 18 -2 2 5 18 15 37 17 31 18 97 18 1448 0 1295 -1 1418 -17
1451 -22 51 -84 116 -132 142 l-41 22 -1950 2 c-1072 1 -1961 -2 -1975 -6z
m3868 -1605 c2 -1089 0 -1371 -10 -1378 -15 -9 -3768 -11 -3792 -2 -14 6 -16
136 -16 1373 0 752 3 1371 7 1374 3 4 862 6 1907 5 l1901 -3 3 -1369z m60
-1626 c31 -19 93 -104 112 -155 7 -18 7 -33 0 -46 -10 -18 -29 -19 -682 -19
l-671 0 7 -56 c4 -37 2 -61 -5 -70 -10 -12 -129 -14 -718 -14 -526 0 -710 3
-719 12 -7 7 -9 31 -5 70 l6 58 -680 0 c-743 0 -713 -2 -699 56 11 42 82 148
113 166 26 16 150 17 1968 18 1918 0 1940 0 1973 -20z"/>
<path d="M2819 3647 c-36 -24 -9 32 -500 -1016 -217 -462 -221 -474 -173 -530
44 -52 116 -60 167 -18 35 30 687 1420 687 1466 0 46 -24 86 -64 105 -46 22
-77 20 -117 -7z"/>
<path d="M1718 3443 c-61 -30 -584 -464 -607 -504 -27 -46 -27 -114 -2 -155
20 -34 571 -490 609 -505 95 -37 206 28 219 130 11 79 -10 104 -228 283 -110
89 -199 165 -199 169 0 4 82 75 183 157 100 82 192 160 204 173 48 52 55 122
20 183 -40 71 -130 102 -199 69z"/>
<path d="M3270 3438 c-84 -43 -115 -155 -63 -226 11 -15 104 -97 208 -183 104
-85 190 -160 192 -165 2 -6 -86 -83 -196 -173 -218 -178 -237 -201 -228 -279
13 -113 141 -179 236 -121 54 33 571 459 587 485 19 28 29 93 20 128 -3 13
-18 38 -32 55 -44 53 -566 474 -603 487 -51 18 -71 17 -121 -8z"/>
</g>
</svg>
