<?xml version="1.0" standalone="no"?>
<!DOCTYPE svg PUBLIC "-//W3C//DTD SVG 20010904//EN"
 "http://www.w3.org/TR/2001/REC-SVG-20010904/DTD/svg10.dtd">
<svg version="1.0" xmlns="http://www.w3.org/2000/svg"
 width="765.000000pt" height="760.000000pt" viewBox="0 0 765.000000 760.000000"
 preserveAspectRatio="xMidYMid meet">

<g transform="translate(0.000000,760.000000) scale(0.100000,-0.100000)"
fill="green" stroke="none">
<path d="M3620 7539 c-80 -4 -210 -18 -290 -29 -192 -27 -211 -31 -205 -40 2
-4 -8 -6 -23 -4 -37 4 -193 -35 -216 -55 -11 -9 -16 -10 -12 -3 8 13 -6 17
-18 5 -3 -4 -15 -7 -25 -8 -39 -3 -260 -79 -255 -87 3 -5 0 -9 -7 -7 -37 5
-51 -1 -44 -18 5 -15 4 -16 -6 -5 -16 15 -33 16 -23 0 4 -6 3 -8 -3 -5 -6 4
-47 -7 -92 -25 -70 -27 -79 -34 -68 -47 10 -14 10 -14 -5 -3 -14 11 -22 11
-47 -3 -17 -8 -34 -16 -38 -16 -15 -1 -63 -33 -63 -42 0 -4 -5 -5 -10 -2 -6 4
-27 -4 -48 -17 -20 -12 -39 -23 -42 -24 -21 -4 -39 -18 -33 -27 3 -6 1 -7 -5
-3 -6 4 -23 0 -37 -9 -14 -8 -37 -22 -51 -31 l-26 -16 22 -15 c21 -15 24 -15
38 3 8 10 12 13 10 5 -2 -8 -11 -18 -19 -21 -8 -4 -24 -12 -36 -18 -16 -9 -24
-9 -29 0 -4 6 -3 8 3 5 6 -4 16 0 22 7 10 11 8 16 -8 21 -29 9 -43 -3 -36 -28
5 -19 4 -20 -7 -6 -14 17 -42 14 -32 -3 4 -6 3 -8 -3 -5 -6 4 -49 -20 -97 -53
-96 -65 -120 -86 -108 -94 5 -3 21 8 36 25 15 16 35 29 43 29 9 0 21 7 28 17
9 13 14 13 20 3 5 -8 4 -11 -3 -6 -6 3 -13 -3 -17 -13 -4 -13 -11 -18 -22 -14
-12 5 -15 2 -10 -9 4 -12 1 -14 -15 -10 -16 4 -19 2 -13 -8 5 -8 4 -11 -2 -7
-6 4 -16 0 -23 -8 -10 -12 -16 -13 -27 -3 -11 9 -16 9 -22 -1 -5 -7 -12 -13
-17 -13 -5 0 -8 -4 -6 -9 1 -5 -1 -8 -5 -7 -11 3 -56 -23 -50 -29 3 -2 14 0
26 6 30 17 35 -4 5 -24 -15 -9 -24 -13 -20 -7 3 5 -3 12 -14 15 -13 3 -26 -3
-39 -19 -10 -13 -23 -24 -28 -24 -14 0 -44 -35 -38 -43 3 -4 2 -5 -1 -2 -12 8
-45 -16 -38 -27 4 -6 3 -8 -3 -5 -5 3 -78 -59 -161 -139 -113 -108 -150 -150
-147 -165 2 -11 0 -17 -6 -13 -14 8 -70 -46 -62 -59 3 -6 1 -7 -4 -4 -16 10
-34 -16 -23 -33 8 -12 10 -11 11 5 0 12 3 15 6 7 3 -7 -3 -22 -13 -33 -12 -13
-13 -19 -4 -19 7 0 10 -3 7 -6 -4 -4 -13 -2 -21 5 -10 8 -16 9 -19 1 -3 -6 -4
-5 -3 2 2 7 8 13 14 13 7 0 12 3 12 8 0 4 0 10 0 14 0 3 -9 -2 -20 -12 -11
-10 -20 -22 -20 -27 0 -5 -14 -23 -30 -40 -17 -16 -27 -34 -24 -40 4 -6 2 -8
-3 -5 -11 7 -49 -41 -45 -55 1 -5 -2 -8 -7 -8 -5 0 -19 -13 -30 -29 -19 -27
-20 -31 -5 -45 8 -9 11 -16 6 -16 -6 0 -9 -18 -8 -39 1 -22 -1 -38 -6 -35 -4
3 -8 0 -8 -6 0 -7 -7 -4 -16 5 -15 15 -18 15 -35 -1 -11 -9 -19 -23 -19 -29 0
-7 -7 -19 -17 -26 -15 -13 -15 -12 -2 11 25 45 51 69 67 63 11 -5 13 -3 7 7
-5 9 -4 11 3 6 7 -4 12 -1 12 7 0 7 -9 13 -20 12 -21 -1 -102 -113 -93 -127 2
-5 0 -8 -5 -8 -14 0 -113 -180 -106 -192 4 -6 3 -8 -3 -5 -13 8 -96 -149 -87
-165 4 -7 4 -10 -1 -6 -10 9 -77 -134 -79 -167 0 -13 -4 -21 -7 -19 -11 6 -40
-76 -33 -89 4 -7 3 -8 -1 -4 -10 8 -34 -59 -95 -258 -44 -144 -45 -149 -27
-139 6 4 4 -1 -5 -12 -9 -11 -21 -39 -27 -64 -14 -59 -13 -66 1 -52 7 7 16 12
21 12 5 0 2 -7 -7 -15 -8 -8 -19 -15 -24 -15 -11 0 -13 -13 -47 -240 -35 -236
-48 -498 -35 -727 17 -296 79 -681 119 -727 9 -11 10 -16 3 -12 -16 10 -16 9
19 -111 66 -227 207 -583 230 -583 6 0 7 -5 4 -11 -8 -11 158 -317 182 -336
11 -8 22 -9 34 -3 18 10 38 -4 25 -17 -3 -4 -6 -1 -6 6 0 8 -5 9 -19 2 -10 -6
-22 -7 -26 -3 -8 7 14 -29 53 -87 23 -35 62 -50 62 -24 0 8 -5 11 -12 7 -7 -5
-8 -3 -3 6 6 10 4 12 -7 7 -10 -3 -25 4 -39 19 -12 13 -19 24 -15 24 5 0 3 7
-4 15 -9 10 -9 15 -1 15 6 0 11 -5 11 -11 0 -5 6 -7 13 -3 9 6 9 5 0 -8 -11
-12 -9 -18 9 -34 21 -19 21 -19 14 0 -5 15 -4 17 8 7 11 -9 15 -9 20 1 3 7 4
4 3 -7 -1 -11 3 -19 8 -18 6 1 10 -9 10 -22 0 -13 -3 -21 -7 -18 -5 2 -8 -2
-8 -9 0 -10 -3 -9 -10 2 -5 8 -12 11 -16 8 -3 -4 5 -21 20 -38 20 -24 26 -27
26 -14 0 14 3 15 12 6 9 -9 9 -15 1 -23 -9 -9 -3 -23 24 -58 19 -25 39 -45 45
-43 5 1 7 -1 4 -6 -3 -5 8 -23 23 -40 16 -17 27 -33 24 -36 -2 -2 9 -14 26
-27 17 -12 28 -26 26 -30 -3 -4 5 -16 17 -26 13 -10 45 -44 71 -76 27 -31 56
-57 64 -57 9 0 13 -3 9 -7 -3 -4 17 -31 46 -60 52 -52 53 -53 68 -33 15 20 16
20 16 1 0 -11 -4 -17 -8 -15 -12 8 -9 -5 7 -30 15 -23 72 -36 58 -13 -3 6 -1
7 6 3 6 -4 9 -12 5 -17 -3 -5 0 -18 7 -27 8 -9 1 -6 -14 7 -15 14 -27 21 -27
17 0 -11 73 -71 83 -68 4 1 6 -2 2 -7 -7 -12 29 -33 40 -23 5 4 5 2 2 -4 -4
-6 31 -41 81 -81 107 -86 110 -87 126 -74 10 8 16 8 25 -3 10 -12 8 -13 -11
-8 -20 5 -22 4 -9 -11 9 -11 21 -15 37 -11 16 4 24 2 24 -6 0 -7 8 -10 20 -7
13 3 21 -1 25 -14 4 -11 10 -17 15 -14 5 3 11 1 14 -4 4 -5 -2 -8 -11 -7 -9 2
-19 8 -21 14 -2 7 -12 12 -22 12 -10 0 -22 5 -25 10 -3 6 -11 10 -16 10 -6 0
-8 -4 -5 -9 7 -10 148 -104 213 -142 23 -13 73 -43 112 -65 69 -42 85 -45 74
-18 -3 10 -13 12 -27 8 -21 -6 -21 -6 -1 10 20 17 20 17 -5 11 -22 -5 -23 -5
-6 6 16 10 22 8 37 -12 10 -13 16 -31 14 -39 -5 -16 60 -54 76 -45 5 4 9 2 9
-2 0 -9 45 -39 65 -44 6 -1 37 -15 70 -31 33 -15 65 -28 70 -28 6 0 29 -9 50
-20 22 -11 46 -18 53 -15 7 3 10 0 7 -5 -9 -14 9 -12 24 2 10 11 11 10 6 -4
-7 -18 7 -24 45 -18 8 1 11 -2 7 -6 -4 -5 15 -16 44 -26 29 -10 54 -16 57 -14
8 8 -59 37 -70 30 -7 -4 -8 -3 -4 4 4 7 1 12 -6 12 -8 0 -6 5 5 11 19 11 41 3
32 -12 -4 -5 1 -9 9 -9 8 0 23 -11 33 -24 21 -26 129 -65 120 -43 -3 7 6 13
22 14 24 1 24 0 8 -12 -18 -13 -7 -32 12 -20 5 3 12 1 16 -5 9 -15 28 -12 19
3 -4 6 1 5 12 -4 31 -26 279 -79 509 -109 169 -21 442 -30 623 -20 214 12 372
30 372 42 0 5 5 6 10 3 14 -8 161 15 155 25 -2 4 8 6 23 4 37 -4 193 35 216
55 11 9 16 10 12 3 -6 -10 -1 -11 21 -6 42 10 46 15 26 29 -16 12 -16 13 8 12
16 -1 25 -7 22 -14 -4 -9 9 -8 49 3 29 9 55 19 58 23 3 3 10 6 15 6 29 0 104
29 98 38 -3 6 -1 7 6 3 6 -4 65 14 131 40 103 42 117 50 107 64 -10 13 -10 13
5 2 13 -11 26 -8 82 18 40 19 64 36 60 42 -5 7 -2 8 5 3 19 -11 92 27 86 45
-2 8 4 26 14 39 15 20 21 22 37 12 17 -11 16 -11 -6 -6 -25 6 -25 6 -5 -11 20
-16 20 -16 -1 -10 -14 4 -24 2 -27 -8 -13 -33 6 -25 158 67 68 41 265 170 265
173 0 3 -10 9 -22 14 -20 9 -19 9 7 5 40 -7 101 32 97 61 -2 15 -1 16 7 5 7
-11 27 0 95 54 47 37 83 72 79 78 -3 6 -2 7 4 4 5 -4 23 8 39 25 16 18 20 26
9 18 -18 -14 -19 -14 -6 2 7 10 17 15 22 13 9 -6 54 34 46 41 -2 2 -10 -2 -17
-11 -7 -8 -17 -15 -23 -15 -15 0 34 34 53 37 20 3 241 233 234 244 -3 5 1 9 9
9 16 0 50 34 42 42 -3 3 6 13 20 22 14 9 25 22 25 29 0 7 9 20 20 30 12 10 18
23 14 29 -4 6 -3 8 3 5 26 -17 49 48 29 81 -4 7 -5 16 -2 19 3 4 6 1 6 -7 0
-10 4 -10 17 1 14 12 16 12 8 -1 -5 -8 -10 -23 -10 -32 -1 -14 1 -15 12 -7 7
6 10 15 7 20 -3 5 -1 9 5 9 17 0 53 59 44 72 -11 19 -12 37 -3 43 5 3 7 -3 5
-15 -2 -11 0 -22 5 -25 12 -7 32 30 22 40 -4 5 -2 5 5 1 7 -4 17 2 22 13 14
26 14 38 0 24 -6 -6 -18 -9 -27 -6 -9 4 -13 2 -9 -4 8 -13 -18 -11 -30 1 -4 4
-1 6 7 4 10 -2 14 3 12 16 -3 18 -2 18 13 2 9 -9 22 -13 28 -9 7 4 16 8 20 8
4 0 28 31 52 69 35 54 42 72 34 83 -9 11 -8 12 4 7 18 -6 47 42 39 65 -3 8 0
11 6 7 14 -8 116 180 106 195 -4 7 -3 9 3 6 16 -10 34 48 20 62 -9 9 -8 11 4
6 9 -3 19 0 22 7 58 141 76 191 72 199 -4 5 -2 9 4 9 14 0 45 86 36 101 -5 7
-4 10 2 6 6 -4 13 1 16 11 2 9 21 70 41 136 20 65 38 130 40 145 2 14 9 39 15
55 6 16 13 46 14 68 1 21 5 38 8 38 3 0 13 42 22 93 53 300 72 592 57 871 -10
183 -35 396 -50 436 -1 3 -2 9 0 15 4 25 -25 141 -40 155 -9 8 -10 11 -2 6 11
-8 12 -3 6 30 -4 21 -11 50 -17 64 -6 14 -10 28 -9 32 1 6 -57 214 -79 280 -7
21 -17 34 -22 31 -6 -3 -7 -1 -3 5 10 16 -15 93 -27 85 -6 -3 -7 -1 -3 5 4 6
-7 44 -24 84 -17 40 -38 90 -47 111 -9 20 -20 37 -26 37 -5 0 -1 -12 9 -27 16
-26 16 -27 0 -14 -9 8 -24 28 -32 45 -12 24 -12 27 -1 14 17 -21 27 -14 20 12
-3 11 -10 17 -16 13 -5 -3 -7 -1 -3 5 9 14 -25 83 -37 75 -6 -3 -7 -1 -3 5 9
14 -37 95 -48 85 -4 -4 -4 0 0 10 3 10 1 17 -5 17 -6 0 -10 3 -9 8 3 12 -42
92 -52 92 -6 0 -9 3 -9 8 3 18 -2 32 -18 48 -10 10 -18 20 -18 24 0 4 -58 101
-72 119 -2 3 -11 -3 -21 -14 -15 -16 -15 -17 0 -12 15 5 48 -20 48 -38 0 -5 8
-18 18 -29 17 -21 17 -21 -5 -2 -13 11 -23 25 -23 31 0 7 -6 18 -14 24 -11 9
-18 8 -30 -4 -9 -10 -16 -12 -16 -5 0 6 -4 9 -9 6 -5 -4 -8 2 -6 11 1 10 8 17
14 16 6 -2 15 5 20 15 8 15 2 30 -25 70 -19 29 -39 52 -45 52 -6 0 -8 4 -5 9
3 5 -2 15 -12 22 -15 13 -16 12 -3 -3 10 -14 10 -18 1 -18 -9 0 -9 -4 1 -17
13 -16 12 -17 -3 -4 -14 11 -18 11 -18 1 0 -8 -3 -10 -6 -7 -4 4 -2 12 3 19
14 17 9 64 -6 60 -7 -1 -10 2 -7 7 3 5 -8 23 -24 41 -17 18 -30 36 -30 40 0 5
-11 17 -25 28 -14 11 -25 25 -25 31 0 19 -390 402 -402 395 -6 -4 -8 -2 -5 3
9 14 -19 37 -34 27 -7 -4 -9 -3 -6 3 9 15 -84 90 -106 85 -10 -2 -14 -8 -11
-15 4 -7 3 -8 -1 -4 -16 14 -14 36 3 30 10 -3 6 4 -8 15 -13 11 -28 18 -32 15
-5 -2 -7 0 -6 5 3 11 -58 57 -196 148 -73 48 -81 51 -93 36 -11 -15 -12 -14
-10 8 2 27 -18 36 -43 20 -13 -9 -13 -11 0 -19 8 -5 18 -7 24 -4 5 3 6 1 2 -5
-5 -8 -14 -8 -32 0 l-26 12 21 17 c23 19 22 21 -50 62 -26 14 -56 24 -68 22
-12 -2 -19 0 -16 6 4 5 11 6 17 3 7 -5 8 -2 4 5 -5 7 -10 10 -13 7 -3 -3 -18
3 -32 13 -43 30 -93 51 -104 44 -6 -3 -7 -1 -3 5 4 7 2 13 -3 13 -20 3 -26 5
-66 26 -78 40 -275 114 -287 107 -7 -5 -8 -3 -3 6 6 10 3 12 -13 8 -12 -4 -20
-3 -17 1 4 8 -192 73 -227 76 -10 1 -21 4 -24 8 -12 12 -26 8 -18 -5 4 -7 -1
-6 -12 3 -16 14 -160 55 -204 58 -8 1 -76 12 -150 25 -238 43 -562 61 -820 45z
m-277 -56 c-7 -2 -19 -2 -25 0 -7 3 -2 5 12 5 14 0 19 -2 13 -5z m1020 0 c-7
-2 -21 -2 -30 0 -10 3 -4 5 12 5 17 0 24 -2 18 -5z m132 -21 c-3 -3 -11 0 -18
7 -9 10 -8 11 6 5 10 -3 15 -9 12 -12z m-1308 2 c-3 -3 -12 -4 -19 -1 -8 3 -5
6 6 6 11 1 17 -2 13 -5z m110 0 c-3 -3 -12 -4 -19 -1 -8 3 -5 6 6 6 11 1 17
-2 13 -5z m1150 0 c-3 -3 -12 -4 -19 -1 -8 3 -5 6 6 6 11 1 17 -2 13 -5z m96
-1 c-7 -2 -19 -2 -25 0 -7 3 -2 5 12 5 14 0 19 -2 13 -5z m-1286 -9 c-3 -3
-12 -4 -19 -1 -8 3 -5 6 6 6 11 1 17 -2 13 -5z m1260 -10 c-3 -3 -12 -4 -19
-1 -8 3 -5 6 6 6 11 1 17 -2 13 -5z m-1557 -33 c0 -5 -7 -12 -16 -15 -14 -5
-15 -4 -4 9 14 17 20 19 20 6z m-125 -31 c3 -5 2 -10 -4 -10 -5 0 -13 5 -16
10 -3 6 -2 10 4 10 5 0 13 -4 16 -10z m89 -12 c-2 -3 -20 -6 -39 -5 -19 1 -30
4 -24 8 13 8 68 6 63 -3z m1876 2 c-8 -5 -19 -10 -25 -10 -5 0 -3 5 5 10 8 5
20 10 25 10 6 0 3 -5 -5 -10z m-2130 -34 c0 -2 -7 -7 -16 -10 -8 -3 -12 -2 -9
4 6 10 25 14 25 6z m2365 -6 c3 -5 2 -10 -4 -10 -5 0 -13 5 -16 10 -3 6 -2 10
4 10 5 0 13 -4 16 -10z m-2400 -28 c-3 -4 -20 -7 -38 -8 -30 -2 -30 -1 -9 10
13 7 19 16 15 20 -4 5 3 3 15 -3 13 -7 21 -16 17 -19z m71 -9 c0 -1 -14 1 -31
4 -25 5 -26 7 -10 13 15 5 49 -8 41 -17z m2302 6 c-14 -4 -32 -10 -40 -14 -7
-5 -4 1 7 12 12 12 28 18 40 15 17 -5 17 -6 -7 -13z m73 -7 c-13 -2 -27 0 -32
5 -6 6 3 7 23 4 28 -4 29 -6 9 -9z m50 -5 c-10 -9 -11 -8 -5 6 3 10 9 15 12
12 3 -3 0 -11 -7 -18z m-2651 -33 c0 -2 -9 -4 -20 -4 -11 0 -20 4 -20 9 0 5 9
7 20 4 11 -3 20 -7 20 -9z m2775 -4 c3 -6 -1 -7 -9 -4 -18 7 -21 14 -7 14 6 0
13 -4 16 -10z m-2810 -27 c16 -4 17 -3 5 6 -12 9 -11 11 10 11 21 0 23 -2 10
-15 -17 -16 -59 -25 -59 -11 1 5 -5 13 -13 18 -9 7 -7 8 7 3 11 -4 29 -9 40
-12z m2775 6 c-12 -9 -11 -10 6 -6 11 2 21 -1 21 -7 0 -19 -43 -13 -44 7 -1
10 5 17 15 17 15 0 15 -2 2 -11z m77 -9 c10 -13 8 -16 -6 -16 -13 0 -17 6 -13
19 2 10 5 16 6 15 1 -2 7 -10 13 -18z m-2977 -34 c0 -2 -11 -6 -25 -8 -14 -3
-25 -1 -25 3 0 5 11 9 25 9 14 0 25 -2 25 -4z m3122 -10 c10 5 10 4 2 -5 -12
-13 -44 -5 -44 11 0 6 6 5 15 -2 8 -6 20 -8 27 -4z m-3198 -27 c-9 -10 -23
-15 -32 -12 -11 5 -13 3 -7 -7 5 -9 4 -11 -3 -6 -17 10 -15 26 4 26 9 0 12 5
8 13 -5 7 0 6 11 -3 17 -14 18 -13 12 2 -4 12 -2 15 9 11 13 -5 13 -8 -2 -24z
m56 11 c0 -5 -5 -10 -11 -10 -5 0 -7 5 -4 10 3 6 8 10 11 10 2 0 4 -4 4 -10z
m3093 -7 c-7 -2 -19 -2 -25 0 -7 3 -2 5 12 5 14 0 19 -2 13 -5z m127 -18 c16
10 31 -31 16 -44 -11 -9 -12 -6 -9 13 4 20 1 23 -20 21 -15 -2 -28 3 -31 11
-4 12 -2 12 14 4 11 -6 25 -8 30 -5z m-3200 1 c0 -3 -4 -8 -10 -11 -5 -3 -10
-1 -10 4 0 6 5 11 10 11 6 0 10 -2 10 -4z m-168 -31 c3 -13 1 -22 -3 -19 -9 5
-13 44 -5 44 2 0 6 -11 8 -25z m-48 -19 c-10 -8 -21 -10 -22 -5 -2 5 -9 6 -14
3 -7 -4 -8 -2 -4 4 4 6 13 9 20 6 8 -3 17 0 21 6 4 6 10 9 13 6 3 -4 -3 -13
-14 -20z m-11 -30 c3 3 14 1 24 -5 15 -8 14 -9 -10 -7 -15 1 -33 9 -40 16 -10
12 -9 12 4 2 9 -6 18 -9 22 -6z m3545 5 c11 -7 10 -10 -3 -15 -19 -7 -35 0
-35 15 0 11 20 12 38 0z m-3583 -11 c3 -6 -1 -7 -9 -4 -18 7 -21 14 -7 14 6 0
13 -4 16 -10z m3525 0 c-8 -5 -19 -10 -25 -10 -5 0 -3 5 5 10 8 5 20 10 25 10
6 0 3 -5 -5 -10z m116 -40 c0 -12 -4 -16 -9 -11 -5 5 -6 14 -3 20 10 15 12 14
12 -9z m169 -90 c-3 -5 1 -11 7 -13 8 -4 7 -6 -4 -6 -9 -1 -18 -7 -21 -13 -3
-7 -4 -3 -4 10 1 12 5 22 10 22 5 0 3 8 -4 18 -13 15 -12 16 3 3 10 -7 16 -17
13 -21z m-4034 13 c-9 -4 -10 -7 -2 -12 8 -5 4 -14 -10 -27 -13 -10 -19 -14
-16 -7 4 6 0 13 -10 16 -14 4 -13 5 5 6 12 0 21 4 21 9 -3 15 1 22 14 21 8 0
8 -2 -2 -6z m4109 -69 c0 -8 -4 -14 -8 -14 -4 0 -8 9 -8 19 0 11 4 17 8 15 4
-3 8 -12 8 -20z m36 -9 c9 -8 11 -15 6 -15 -5 0 -15 7 -22 15 -7 8 -9 15 -6
15 4 0 14 -7 22 -15z m49 -35 c13 -5 14 -9 5 -9 -8 0 -24 4 -35 9 -13 5 -14 9
-5 9 8 0 24 -4 35 -9z m72 -65 c0 -8 -4 -15 -9 -15 -10 0 -11 14 -1 23 9 10
10 9 10 -8z m-4586 -63 c-7 -13 -6 -23 2 -33 7 -7 3 -6 -8 3 -11 8 -28 14 -38
13 -9 -2 -15 1 -12 5 3 5 14 7 24 5 11 -2 22 3 25 11 3 8 8 14 11 14 3 0 1 -8
-4 -18z m4673 -6 c11 -18 13 -27 4 -32 -7 -4 -8 -3 -4 5 4 6 1 14 -7 17 -7 2
-14 11 -14 19 0 20 2 19 21 -9z m46 -20 c0 -2 -8 -10 -17 -17 -16 -13 -17 -12
-4 4 13 16 21 21 21 13z m-4755 -16 c3 -6 -1 -7 -9 -4 -18 7 -21 14 -7 14 6 0
13 -4 16 -10z m-35 -24 c0 -2 -8 -10 -17 -17 -16 -13 -17 -12 -4 4 13 16 21
21 21 13z m4821 -13 c13 -16 12 -17 -3 -4 -10 7 -18 15 -18 17 0 8 8 3 21 -13z
m-4889 -19 c-12 -8 -19 -20 -16 -26 5 -7 2 -8 -6 -3 -10 6 -12 4 -7 -8 3 -9 1
-19 -5 -23 -7 -5 -8 -2 -3 6 6 10 4 12 -11 6 -12 -5 -7 5 15 28 19 20 40 36
45 36 6 0 0 -7 -12 -16z m4985 -56 c-6 -4 -16 -8 -22 -8 -5 0 -4 4 3 9 10 6 7
16 -14 42 l-28 34 37 -34 c26 -25 33 -37 24 -43z m-4920 42 c2 -21 -12 -27
-22 -10 -5 8 -11 7 -21 -1 -8 -6 -14 -9 -14 -5 0 3 0 9 0 14 0 4 9 7 19 7 11
0 23 3 27 8 10 9 10 10 11 -13z m4862 6 c8 -10 9 -16 1 -21 -6 -4 -10 -3 -9 2
3 18 -2 24 -13 16 -19 -11 -39 -13 -32 -2 3 5 9 7 14 4 5 -3 11 -1 15 5 8 13
10 13 24 -4z m-4985 -78 c-3 -5 -11 -7 -17 -5 -7 2 -17 -3 -23 -11 -9 -12 -13
-12 -19 -2 -5 8 -4 11 2 7 5 -4 16 5 23 18 10 19 16 22 27 14 7 -6 10 -15 7
-21z m5079 16 c3 -3 3 -12 0 -20 -4 -11 -9 -12 -19 -3 -8 6 -11 15 -8 20 6 10
18 12 27 3z m-5034 -27 c0 -9 -2 -8 -6 1 -2 6 -10 9 -15 6 -7 -4 -8 -2 -4 5 9
13 26 5 25 -12z m4981 3 c-12 -8 -12 -10 -1 -10 8 0 12 -3 8 -6 -9 -9 -28 6
-22 17 4 5 12 9 18 9 7 0 6 -4 -3 -10z m89 -39 c-2 -6 -10 2 -17 17 -11 25
-11 25 4 10 9 -9 15 -21 13 -27z m-5178 -28 c-12 -20 -14 -14 -5 12 4 9 9 14
11 11 3 -2 0 -13 -6 -23z m-11 -32 c0 -3 -5 0 -12 7 -14 14 -32 16 -23 2 4 -6
-1 -7 -12 -3 -15 5 -16 3 -5 -8 6 -7 12 -20 12 -28 0 -10 -6 -6 -13 9 -14 26
-11 54 4 44 5 -3 9 3 9 12 0 14 3 13 20 -6 11 -13 20 -26 20 -29z m5255 19
c-3 -5 -1 -11 5 -15 5 -3 10 -12 10 -18 0 -7 -5 -4 -11 5 -5 10 -17 15 -27 12
-15 -5 -15 -4 1 6 15 10 16 14 5 28 -12 15 -11 16 4 3 10 -7 16 -17 13 -21z
m-5222 5 c-3 -9 -8 -14 -10 -11 -3 3 -2 9 2 15 9 16 15 13 8 -4z m5157 -5 c0
-5 -5 -10 -11 -10 -5 0 -7 5 -4 10 3 6 8 10 11 10 2 0 4 -4 4 -10z m63 -45 c4
-8 3 -16 -1 -19 -4 -3 -9 4 -9 15 -2 23 3 25 10 4z m-5350 -12 c-7 -3 -13 -10
-13 -18 0 -7 -6 -17 -13 -23 -10 -8 -13 -6 -14 11 -2 17 0 19 7 7 9 -13 10
-13 10 1 0 18 21 41 29 32 3 -3 0 -8 -6 -10z m44 -35 c-3 -8 -6 -5 -6 6 -1 11
2 17 5 13 3 -3 4 -12 1 -19z m5384 -5 c13 -16 12 -17 -3 -4 -10 7 -18 15 -18
17 0 8 8 3 21 -13z m34 -2 c3 -5 2 -12 -3 -15 -5 -3 -9 1 -9 9 0 17 3 19 12 6z
m-5535 -24 c0 -2 -10 -12 -22 -23 l-23 -19 19 23 c18 21 26 27 26 19z m5574
-25 c25 -27 26 -30 9 -42 -15 -12 -16 -12 -6 0 11 11 8 19 -14 42 -15 15 -24
28 -22 28 3 0 18 -13 33 -28z m-5558 -5 c0 -14 -8 -24 -18 -24 -10 -1 -18 1
-18 4 0 5 30 40 36 42 1 1 1 -9 0 -22z m5544 -19 c0 -19 -35 -2 -36 18 -2 21
-1 21 17 6 11 -9 19 -20 19 -24z m-5605 -59 c-5 -16 -4 -19 5 -14 9 6 11 4 5
-4 -10 -18 -27 2 -19 22 9 25 17 21 9 -4z m5638 -20 c-8 -8 -13 -7 -18 2 -6 8
-4 10 5 4 10 -6 12 -4 6 11 -6 15 -5 17 5 7 9 -10 10 -16 2 -24z m59 13 c7 -7
10 -12 8 -13 -3 0 -13 -2 -23 -4 -9 -2 -15 1 -11 6 3 5 0 9 -5 9 -6 0 -11 4
-11 9 0 12 27 8 42 -7z m-5767 -82 c1 -11 -2 -20 -6 -20 -9 0 -19 37 -11 44 8
9 16 -2 17 -24z m5791 5 c1 -8 -1 -15 -6 -15 -10 0 -20 26 -13 34 8 8 16 -1
19 -19z m-5826 -9 c0 -3 -4 -8 -10 -11 -5 -3 -10 -1 -10 4 0 6 5 11 10 11 6 0
10 -2 10 -4z m5860 -6 c0 -5 -2 -10 -4 -10 -3 0 -8 5 -11 10 -3 6 -1 10 4 10
6 0 11 -4 11 -10z m-5908 -77 c-8 -11 -16 -4 -18 17 -4 23 -3 24 8 5 6 -11 11
-21 10 -22z m6026 -87 c-1 -14 -5 -23 -9 -20 -4 2 -6 12 -4 22 5 23 4 22 10
22 3 0 4 -11 3 -24z m-6190 -146 c-7 -11 -17 -20 -22 -20 -5 0 -1 9 9 20 10
11 20 20 22 20 2 0 -2 -9 -9 -20z m6277 0 c10 -11 16 -20 13 -20 -3 0 -13 9
-23 20 -10 11 -16 20 -13 20 3 0 13 -9 23 -20z m102 -173 c0 -8 -6 -14 -14
-14 -9 0 -10 4 -2 14 6 7 12 13 14 13 1 0 2 -6 2 -13z m66 -136 c-4 -3 -11
-10 -14 -14 -3 -5 -9 -1 -12 8 -4 9 -3 13 3 10 14 -9 12 8 -2 25 -7 8 -3 6 10
-4 12 -11 19 -22 15 -25z m-6600 -6 c-3 -9 -8 -14 -10 -11 -3 3 -2 9 2 15 9
16 15 13 8 -4z m-92 -108 c-10 -9 -11 -8 -5 6 3 10 9 15 12 12 3 -3 0 -11 -7
-18z m1551 -824 c-1 -455 0 -834 3 -842 5 -14 7 -14 15 -1 6 8 10 10 10 4 0
-5 -5 -15 -10 -20 -12 -12 -2 -74 12 -74 5 0 7 -4 3 -10 -9 -15 52 -127 95
-173 45 -49 104 -88 94 -62 -3 8 -10 15 -16 15 -5 0 -6 5 -2 11 4 8 14 -1 25
-23 15 -29 27 -37 81 -54 75 -23 275 -27 300 -7 8 7 17 10 20 7 9 -9 80 25 74
35 -4 5 -2 13 4 16 6 4 10 3 9 -2 -4 -23 5 -21 45 7 57 39 120 115 110 132 -4
7 -4 10 1 6 11 -10 47 60 39 74 -4 7 -3 8 4 4 16 -10 15 7 0 23 -11 10 -10 11
3 6 35 -13 39 78 39 918 0 702 -2 809 -15 813 -19 8 -9 24 13 24 15 0 15 -2 2
-10 -10 -6 99 -10 318 -10 249 0 331 3 326 12 -4 6 -3 8 4 4 6 -3 18 -26 27
-51 10 -24 21 -42 26 -39 5 3 6 -2 3 -11 -4 -9 1 -23 9 -33 9 -9 15 -19 15
-22 -3 -14 35 -110 43 -110 5 0 9 5 9 12 0 6 3 8 6 5 4 -4 2 -13 -5 -20 -13
-17 -4 -50 12 -40 5 3 7 2 4 -4 -8 -13 23 -93 35 -93 5 0 6 4 3 10 -3 6 1 7
10 4 11 -5 14 -2 9 12 -4 11 -4 16 0 13 4 -4 9 -19 12 -35 3 -21 2 -25 -5 -14
-8 11 -13 12 -21 4 -8 -8 -6 -21 8 -48 13 -23 23 -33 27 -26 5 9 10 9 18 1 8
-8 7 -14 -2 -23 -10 -11 -11 -9 -6 7 5 15 4 16 -3 6 -7 -9 -7 -24 0 -42 12
-35 28 -38 28 -5 0 14 4 27 9 31 14 8 7 -41 -8 -59 -10 -12 -6 -26 18 -75 21
-40 36 -59 45 -55 9 4 14 -3 14 -21 0 -18 -3 -23 -9 -14 -4 7 -5 17 -2 23 3 5
1 6 -5 2 -14 -9 12 -66 29 -66 6 0 9 -7 5 -15 -3 -8 -1 -15 3 -15 5 0 11 5 13
12 3 7 7 5 11 -6 4 -9 3 -15 -2 -11 -5 3 -12 1 -16 -5 -3 -5 -1 -10 5 -10 6 0
9 -4 5 -9 -3 -5 1 -16 9 -24 8 -8 12 -17 9 -21 -10 -10 12 -7 25 4 7 5 6 3 -2
-6 -11 -13 -12 -22 -4 -40 6 -13 15 -24 20 -24 5 0 6 -4 3 -10 -3 -5 -1 -10 4
-10 6 0 10 -3 9 -7 -4 -15 13 -53 23 -53 6 0 7 -4 4 -10 -3 -5 -1 -10 4 -10 6
0 11 -6 11 -14 0 -8 14 -39 32 -70 29 -50 33 -54 40 -35 5 11 6 25 2 30 -3 5
-1 9 4 9 5 0 14 12 21 26 9 20 9 30 0 40 -9 11 -9 13 2 9 10 -4 22 9 36 39 19
39 20 46 7 57 -8 6 -12 14 -9 17 2 3 11 -1 19 -7 13 -11 16 -8 22 13 3 14 10
26 14 26 4 0 11 7 14 16 3 8 2 12 -4 9 -15 -9 -12 13 6 40 9 14 13 32 10 42
-6 14 -5 15 5 6 10 -10 10 -18 0 -39 -19 -43 -7 -37 28 12 17 25 26 43 19 39
-7 -4 2 5 20 20 26 21 30 30 20 36 -10 7 -10 9 2 9 9 0 45 30 82 68 49 50 65
73 62 89 -2 12 1 25 6 28 6 4 7 -1 3 -11 -5 -13 -3 -15 8 -9 11 7 11 5 -1 -10
-19 -24 -11 -19 85 50 40 28 86 57 103 64 18 8 32 17 32 22 0 5 3 8 8 7 4 -1
43 12 87 29 110 42 191 61 321 73 122 11 272 1 382 -26 35 -9 68 -17 75 -18 7
-1 17 -5 24 -9 6 -4 19 -4 29 0 10 4 21 0 28 -9 25 -33 80 -45 115 -24 5 3 14
-1 21 -9 10 -12 7 -13 -14 -9 -14 2 -26 0 -26 -5 0 -9 11 -14 45 -23 5 -2 20
-13 33 -25 14 -13 30 -19 36 -16 24 16 44 11 67 -14 13 -15 17 -22 8 -15 -9 6
-19 8 -23 4 -4 -4 -6 -1 -4 7 2 7 -2 15 -8 18 -6 2 -11 -4 -11 -13 0 -8 10
-20 22 -24 12 -5 25 -16 28 -24 4 -9 11 -16 17 -16 6 0 8 6 4 13 -4 7 -3 9 2
4 5 -5 9 -14 9 -20 1 -7 6 -11 13 -10 7 2 11 -1 9 -5 -2 -10 117 -122 129
-122 5 0 0 7 -10 15 -24 18 -14 20 13 3 18 -11 18 -13 3 -26 -16 -13 -16 -13
0 -8 12 3 15 1 11 -10 -3 -7 0 -14 6 -14 6 0 16 -11 21 -25 5 -14 16 -28 25
-31 8 -3 12 -10 9 -15 -3 -5 2 -12 10 -15 9 -3 16 -10 16 -15 0 -4 23 -49 50
-100 28 -51 50 -98 50 -106 0 -8 5 -11 12 -7 6 4 8 3 5 -3 -8 -13 14 -83 25
-83 5 0 6 -4 3 -10 -8 -12 14 -90 32 -111 7 -8 13 -20 13 -25 0 -5 -5 -2 -10
6 -7 10 -8 -4 -3 -45 16 -122 8 -333 -16 -443 -12 -56 -19 -107 -15 -114 4 -6
3 -8 -4 -4 -10 6 -59 -118 -54 -136 1 -5 -3 -8 -9 -8 -6 0 -8 -7 -5 -16 3 -8
2 -12 -4 -9 -9 5 -12 -1 -9 -21 0 -4 -4 -10 -9 -13 -16 -10 -46 -75 -30 -65 7
5 -4 -9 -24 -30 -21 -21 -36 -41 -35 -45 2 -7 -51 -68 -135 -155 -32 -32 -55
-63 -51 -69 3 -6 1 -7 -6 -3 -14 9 -103 -62 -95 -76 3 -5 12 -4 20 3 10 8 18
9 25 2 8 -8 7 -13 -2 -18 -8 -5 -10 -4 -5 3 4 7 3 12 -3 12 -5 0 -13 -5 -16
-10 -5 -8 -11 -7 -21 1 -11 9 -20 7 -41 -7 -16 -9 -34 -25 -41 -33 -11 -13
-12 -13 -6 -1 7 13 6 13 -9 1 -16 -13 -16 -14 0 -28 16 -13 16 -13 -5 -3 -28
14 -76 5 -66 -12 4 -7 3 -8 -4 -4 -6 4 -24 0 -39 -8 -16 -8 -24 -15 -20 -16 5
0 5 -5 1 -11 -5 -8 -8 -8 -14 0 -5 9 -21 7 -58 -8 -28 -11 -101 -30 -163 -42
-98 -18 -135 -20 -278 -16 -147 5 -194 10 -291 31 -57 11 -160 45 -230 75 -55
23 -77 28 -85 19 -7 -8 -5 -9 7 -5 9 3 21 0 27 -7 7 -9 3 -12 -19 -11 -19 0
-31 6 -34 17 -2 11 0 15 6 12 6 -4 8 -1 6 7 -3 8 -15 13 -27 12 -12 -2 -20 1
-17 5 3 5 -8 16 -24 25 -27 17 -29 16 -35 -2 -3 -11 -7 -34 -9 -53 -2 -18 -7
-40 -10 -49 -4 -9 -6 -20 -5 -25 1 -5 -1 -16 -4 -24 -14 -35 -88 -432 -83
-446 3 -8 2 -13 -3 -10 -14 9 -33 -105 -20 -120 8 -9 7 -18 -1 -31 -9 -15 -10
-14 -4 7 4 16 3 22 -4 15 -12 -13 -35 -132 -27 -145 3 -6 2 -10 -3 -10 -8 0
-32 -107 -38 -165 -1 -11 -4 -27 -7 -35 -3 -8 -10 -34 -14 -58 l-8 -43 -346
-2 c-305 -2 -345 0 -338 13 12 21 120 532 114 538 -3 3 -1 10 4 16 11 15 54
216 47 224 -3 3 -2 10 3 16 9 11 72 289 69 304 0 4 3 16 7 26 6 13 4 21 -3 24
-7 2 -12 8 -12 13 0 4 6 6 13 4 8 -4 21 35 41 132 17 76 31 149 32 163 1 14 2
25 3 25 5 0 14 42 15 72 0 17 4 29 8 27 4 -3 7 4 7 13 0 10 5 42 12 71 11 50
11 54 -16 92 -18 27 -34 39 -43 35 -11 -4 -12 -2 -4 7 12 15 -9 53 -23 40 -5
-4 -5 -2 -1 5 7 12 -78 150 -111 181 -11 9 -12 13 -4 7 11 -8 10 -3 -3 23 -13
26 -20 31 -31 22 -7 -6 -11 -21 -9 -33 4 -21 4 -21 -5 -2 -6 14 -4 25 5 36 12
14 10 23 -15 68 -18 34 -31 48 -35 40 -3 -8 -4 -5 -1 7 3 11 -2 29 -10 40 -14
17 -15 14 -14 -46 0 -62 -13 -200 -25 -251 -4 -13 -8 -37 -10 -54 -2 -16 -7
-38 -11 -49 -4 -10 -8 -31 -9 -46 -1 -15 -4 -26 -8 -24 -7 4 -24 -63 -20 -78
1 -5 -3 -8 -9 -8 -6 0 -9 -8 -6 -17 3 -10 10 -32 15 -48 8 -27 7 -31 -9 -31
-21 0 -26 12 -8 18 8 3 9 13 4 28 -7 23 -10 20 -36 -34 -16 -32 -26 -64 -22
-70 3 -6 3 -8 -2 -4 -4 4 -23 -18 -42 -50 -19 -31 -51 -77 -71 -101 -20 -25
-37 -50 -38 -56 -2 -20 -16 -45 -27 -45 -5 0 -2 10 9 23 l19 22 -22 -19 c-13
-11 -23 -24 -23 -30 0 -7 -14 -17 -31 -23 -21 -8 -28 -16 -23 -25 4 -7 4 -10
-1 -6 -11 11 -36 -12 -28 -25 3 -5 1 -7 -5 -4 -5 4 -29 -5 -51 -20 -38 -25
-46 -35 -42 -56 1 -5 -3 -6 -9 -2 -6 3 -8 10 -5 14 2 5 -31 -9 -75 -30 -44
-22 -80 -41 -80 -44 0 -3 10 -1 23 5 21 11 21 11 3 -4 -11 -9 -24 -12 -29 -7
-5 5 -43 -2 -88 -15 -44 -13 -117 -28 -162 -35 -88 -12 -478 -9 -470 4 2 4
-11 8 -29 9 -40 1 -48 3 -70 13 -10 4 -29 8 -43 9 -14 0 -25 5 -25 9 0 5 -15
6 -32 3 -25 -5 -28 -4 -13 3 14 7 15 10 5 11 -8 0 -33 9 -55 20 -22 10 -43 16
-47 14 -5 -3 -8 -1 -8 3 0 13 -59 45 -69 38 -5 -3 -13 0 -17 6 -5 8 -2 10 7 5
8 -4 3 1 -11 12 -13 11 -28 18 -32 16 -4 -2 -11 4 -17 13 -8 15 -10 15 -11 2
0 -8 5 -20 12 -27 18 -18 1 -14 -22 5 -13 11 -16 19 -9 24 7 4 8 12 5 18 -10
15 -29 14 -20 -1 5 -10 4 -10 -6 -1 -15 14 -42 6 -34 -11 4 -6 -6 2 -21 17
-15 16 -25 31 -22 34 3 3 11 -4 18 -15 7 -11 19 -18 26 -15 11 4 7 13 -14 37
-26 28 -25 28 10 -3 57 -53 44 -31 -20 32 -55 56 -78 74 -52 40 13 -16 12 -17
-3 -5 -9 8 -15 19 -12 25 2 7 -11 28 -28 47 -18 19 -34 38 -34 42 -1 4 -2 11
-3 14 0 4 -9 0 -18 -7 -16 -13 -17 -12 -5 3 8 9 11 22 7 29 -6 8 -10 7 -17 -2
-6 -10 -7 -7 -3 9 4 14 2 22 -6 22 -7 0 -10 3 -7 6 4 3 -11 41 -33 83 -21 43
-39 84 -39 90 0 7 -5 9 -11 5 -8 -4 -9 0 -4 15 5 15 2 21 -9 21 -9 0 -16 -5
-16 -12 0 -6 -3 -8 -7 -4 -5 4 0 13 9 20 15 11 16 18 6 49 -6 20 -14 35 -17
33 -3 -2 -6 8 -7 22 0 15 -9 68 -19 117 -18 83 -20 159 -25 938 -3 561 -2 847
5 847 6 0 159 0 342 0 216 0 334 3 338 10 3 5 7 10 8 10 1 0 1 -372 -1 -827z
m1641 810 c-6 -16 -3 -15 17 2 l24 20 -17 -27 c-15 -25 -16 -28 -2 -28 13 0
13 -2 3 -14 -11 -11 -15 -9 -25 16 -7 17 -10 34 -7 39 9 15 14 10 7 -8z
m-3203 -7 c0 -2 -8 -10 -17 -17 -16 -13 -17 -12 -4 4 13 16 21 21 21 13z
m1618 -3 c-9 -2 -19 -12 -21 -21 -3 -12 -5 -10 -6 6 -1 17 4 22 22 21 15 -1
17 -3 5 -6z m1642 -3 c0 -5 -4 -10 -10 -10 -5 0 -10 5 -10 10 0 6 5 10 10 10
6 0 10 -4 10 -10z m-3240 -10 c0 -5 -5 -10 -11 -10 -5 0 -7 5 -4 10 3 6 8 10
11 10 2 0 4 -4 4 -10z m2457 4 c-3 -3 -12 -4 -19 -1 -8 3 -5 6 6 6 11 1 17 -2
13 -5z m4291 -18 c-7 -8 -15 -12 -17 -11 -5 6 10 25 20 25 5 0 4 -6 -3 -14z
m-3478 -120 c-7 -7 -13 -7 -20 0 -6 6 -3 10 10 10 13 0 16 -4 10 -10z m-3354
-38 c-9 -12 -16 -19 -16 -15 0 11 24 47 28 42 2 -2 -3 -14 -12 -27z m3357 -23
c-3 -9 -8 -14 -10 -11 -3 3 -2 9 2 15 9 16 15 13 8 -4z m-3349 -45 c-6 -5 -24
21 -24 34 0 6 6 1 14 -10 8 -10 12 -21 10 -24z m6916 25 c0 -8 4 -15 8 -15 5
0 14 -12 21 -27 l13 -28 -20 21 c-27 29 -45 64 -32 64 5 0 10 -7 10 -15z
m-6940 -26 c0 -6 -4 -7 -10 -4 -5 3 -10 11 -10 16 0 6 5 7 10 4 6 -3 10 -11
10 -16z m5043 14 c-7 -2 -21 -2 -30 0 -10 3 -4 5 12 5 17 0 24 -2 18 -5z
m-5072 -46 c-10 -9 -11 -8 -5 6 3 10 9 15 12 12 3 -3 0 -11 -7 -18z m43 8 c-4
-8 -11 -15 -16 -15 -6 0 -5 6 2 15 7 8 14 15 16 15 2 0 1 -7 -2 -15z m3415
-37 c-5 -10 -11 -18 -12 -18 -2 0 -3 8 -3 18 0 10 6 19 13 19 8 0 9 -6 2 -19z
m1171 18 c0 -3 -4 -8 -10 -11 -5 -3 -10 -1 -10 4 0 6 5 11 10 11 6 0 10 -2 10
-4z m-4643 -38 c-3 -7 -5 -2 -5 12 0 14 2 19 5 13 2 -7 2 -19 0 -25z m4573 12
c-8 -5 -19 -10 -25 -10 -5 0 -3 5 5 10 8 5 20 10 25 10 6 0 3 -5 -5 -10z
m-4593 -47 c-3 -10 -5 -2 -5 17 0 19 2 27 5 18 2 -10 2 -26 0 -35z m4622 33
c-2 -2 -15 -9 -29 -15 -24 -11 -24 -11 -6 3 16 13 49 24 35 12z m-140 -62 c14
-12 -19 -1 -35 12 -18 14 -18 14 6 3 14 -6 27 -13 29 -15z m-55 -6 c-3 -4 -9
-8 -15 -8 -5 0 -9 4 -9 8 0 5 7 9 15 9 8 0 12 -4 9 -9z m-903 -15 c13 -16 12
-17 -3 -4 -17 13 -22 21 -14 21 2 0 10 -8 17 -17z m874 -3 c3 -5 1 -10 -4 -10
-6 0 -11 5 -11 10 0 6 2 10 4 10 3 0 8 -4 11 -10z m-4403 -24 c7 4 8 2 4 -5
-10 -15 -26 -4 -25 17 1 15 2 15 6 -1 2 -9 9 -14 15 -11z m4362 -24 c-19 -18
-20 -18 -39 1 -20 20 -20 20 2 8 17 -9 25 -8 35 3 7 8 15 12 17 10 3 -2 -4
-12 -15 -22z m2756 -4 c0 -5 -4 -8 -9 -8 -5 0 -11 -6 -14 -12 -2 -7 -3 -6 -2
3 1 9 -2 24 -7 33 -9 15 -7 16 11 4 12 -7 21 -16 21 -20z m-2790 -22 c0 -6 -5
-5 -12 2 -19 19 -32 14 -17 -5 13 -16 12 -17 -3 -5 -9 7 -16 22 -15 32 1 17 2
17 24 1 12 -9 23 -20 23 -25z m-4363 12 c-3 -8 -6 -5 -6 6 -1 11 2 17 5 13 3
-3 4 -12 1 -19z m7103 -25 c-11 -17 -11 -17 -6 0 3 10 6 24 7 30 0 9 2 9 5 0
3 -7 0 -20 -6 -30z m-3449 -32 c-11 -7 -12 -13 -4 -23 17 -22 24 -50 11 -42
-8 5 -9 2 -5 -10 4 -10 3 -15 -4 -11 -5 4 -7 16 -3 27 4 14 2 18 -5 14 -7 -5
-8 -1 -4 10 5 12 3 15 -6 9 -10 -6 -11 -3 -2 14 7 11 17 21 24 21 8 0 7 -3 -2
-9z m599 -16 c0 -2 -7 -2 -15 1 -11 4 -13 2 -9 -9 3 -8 2 -17 -3 -20 -4 -3 -8
8 -8 23 -1 24 2 27 17 19 10 -5 18 -12 18 -14z m1635 16 c3 -5 -5 -7 -17 -4
-18 4 -20 2 -8 -6 8 -5 12 -12 9 -16 -3 -3 -13 3 -22 13 -15 17 -15 18 8 20
13 1 26 -2 30 -7z m-4 -44 c-10 -9 -11 -8 -5 6 3 10 9 15 12 12 3 -3 0 -11 -7
-18z m1296 -9 c-3 -7 -5 -2 -5 12 0 14 2 19 5 13 2 -7 2 -19 0 -25z m-2937 -2
c0 -2 -8 -10 -17 -17 -16 -13 -17 -12 -4 4 13 16 21 21 21 13z m-56 -25 c3 -4
-7 -19 -22 -32 l-27 -24 23 26 c12 14 19 29 15 32 -3 4 -4 7 0 7 3 0 8 -4 11
-9z m-4214 -21 c0 -5 -5 -10 -11 -10 -5 0 -7 5 -4 10 3 6 8 10 11 10 2 0 4 -4
4 -10z m6000 0 c0 -5 -2 -10 -4 -10 -3 0 -8 5 -11 10 -3 6 -1 10 4 10 6 0 11
-4 11 -10z m1215 0 c3 -5 1 -10 -4 -10 -6 0 -11 5 -11 10 0 6 2 10 4 10 3 0 8
-4 11 -10z m-3455 -71 c0 -14 -17 -10 -23 5 -4 10 -1 13 9 9 7 -3 14 -9 14
-14z m355 1 c17 -18 17 -20 2 -14 -10 3 -17 1 -17 -5 0 -6 5 -11 11 -11 5 0 7
-5 3 -12 -6 -9 -9 -9 -12 0 -2 7 -8 10 -13 6 -5 -3 -9 -1 -9 5 0 5 5 13 11 16
6 4 8 13 5 21 -7 19 -2 18 19 -6z m32 6 c-1 -6 4 -10 11 -8 14 2 16 -4 3 -12
-4 -3 -16 3 -25 13 -13 14 -14 18 -2 18 8 0 14 -5 13 -11z m1897 6 c3 -5 -1
-9 -9 -9 -8 0 -12 4 -9 9 3 4 7 8 9 8 2 0 6 -4 9 -8z m27 -15 c-6 -8 -7 -18
-3 -22 4 -5 1 -5 -6 -1 -10 6 -10 11 -1 22 6 8 14 14 16 14 3 0 0 -6 -6 -13z
m23 -73 c3 -8 2 -12 -4 -9 -6 3 -10 10 -10 16 0 14 7 11 14 -7z m36 -24 c0 -5
-2 -10 -4 -10 -3 0 -8 5 -11 10 -3 6 -1 10 4 10 6 0 11 -4 11 -10z m-6163 -32
c-3 -8 -6 -5 -6 6 -1 11 2 17 5 13 3 -3 4 -12 1 -19z m7270 0 c-3 -8 -6 -5 -6
6 -1 11 2 17 5 13 3 -3 4 -12 1 -19z m-1107 -8 c0 -5 -5 -10 -11 -10 -5 0 -7
5 -4 10 3 6 8 10 11 10 2 0 4 -4 4 -10z m-2095 -30 c-12 -13 -22 -17 -28 -11
-13 13 1 31 18 24 8 -3 15 1 15 8 0 7 3 9 7 6 3 -4 -2 -16 -12 -27z m-204 -13
c-10 -9 -11 -8 -5 6 3 10 9 15 12 12 3 -3 0 -11 -7 -18z m2356 -59 c-3 -8 -6
-5 -6 6 -1 11 2 17 5 13 3 -3 4 -12 1 -19z m49 -10 c0 -10 -1 -18 -1 -18 0 0
-8 9 -17 19 -16 18 -15 20 1 18 9 0 17 -9 17 -19z m-20 -33 c-3 -8 0 -16 7
-19 8 -3 8 -5 1 -5 -16 -1 -37 26 -29 39 9 14 28 1 21 -15z m-2324 -51 c-9
-16 -10 -14 -9 8 1 15 6 23 11 18 4 -4 4 -16 -2 -26z m2375 30 c-3 -3 -12 -4
-19 -1 -8 3 -5 6 6 6 11 1 17 -2 13 -5z m1042 -63 c0 -9 -6 -3 -14 14 -19 41
-19 67 0 31 8 -15 15 -36 14 -45z m-3365 44 c-4 -8 -13 -15 -22 -15 -13 0 -12
3 4 15 24 18 25 18 18 0z m-29 -35 c3 -5 1 -10 -4 -10 -6 0 -11 5 -11 10 0 6
2 10 4 10 3 0 8 -4 11 -10z m32 -5 c0 -8 -4 -12 -9 -9 -4 3 -8 9 -8 15 0 5 4
9 8 9 5 0 9 -7 9 -15z m2304 2 c-7 -7 -14 -8 -21 -1 -6 6 -2 10 12 11 16 2 18
-1 9 -10z m46 -39 c-3 -8 -6 -5 -6 6 -1 11 2 17 5 13 3 -3 4 -12 1 -19z
m-2363 -4 c5 -14 4 -15 -9 -4 -17 14 -19 20 -6 20 5 0 12 -7 15 -16z m2373
-56 c-3 -8 -6 -5 -6 6 -1 11 2 17 5 13 3 -3 4 -12 1 -19z m-6400 -30 c-3 -8
-6 -5 -6 6 -1 11 2 17 5 13 3 -3 4 -12 1 -19z m10 -140 c-3 -7 -5 -2 -5 12 0
14 2 19 5 13 2 -7 2 -19 0 -25z m6385 -83 c-2 -14 -6 -25 -8 -25 -2 0 -4 11
-4 25 0 14 4 25 9 25 4 0 6 -11 3 -25z m1015 -57 c-3 -7 -5 -2 -5 12 0 14 2
19 5 13 2 -7 2 -19 0 -25z m-3866 -81 c-10 -9 -11 -8 -5 6 3 10 9 15 12 12 3
-3 0 -11 -7 -18z m12 -22 c-3 -9 -8 -14 -10 -11 -3 3 -2 9 2 15 9 16 15 13 8
-4z m3854 -22 c-3 -10 -5 -4 -5 12 0 17 2 24 5 18 2 -7 2 -21 0 -30z m-3880 5
c-3 -8 -6 -5 -6 6 -1 11 2 17 5 13 3 -3 4 -12 1 -19z m2870 -10 c-3 -8 -6 -5
-6 6 -1 11 2 17 5 13 3 -3 4 -12 1 -19z m-2847 -8 c0 -5 -5 -10 -11 -10 -5 0
-7 5 -4 10 3 6 8 10 11 10 2 0 4 -4 4 -10z m2852 -24 c7 4 8 2 4 -5 -9 -13
-26 -5 -25 12 0 9 2 8 6 -1 2 -6 10 -9 15 -6z m-2865 -43 c-3 -10 -5 -4 -5 12
0 17 2 24 5 18 2 -7 2 -21 0 -30z m3860 5 c-3 -7 -5 -2 -5 12 0 14 2 19 5 13
2 -7 2 -19 0 -25z m-3755 -23 c2 3 5 -2 5 -10 0 -19 0 -19 -23 7 -12 14 -13
18 -3 10 9 -6 18 -10 21 -7z m-85 -17 c-3 -8 -6 -5 -6 6 -1 11 2 17 5 13 3 -3
4 -12 1 -19z m-1627 -18 c0 -5 -5 -10 -11 -10 -8 0 -7 -6 2 -17 12 -17 12 -17
-5 -1 -10 9 -15 21 -12 27 9 14 26 14 26 1z m1577 -12 c-3 -8 -6 -5 -6 6 -1
11 2 17 5 13 3 -3 4 -12 1 -19z m3903 0 c0 -18 -2 -20 -9 -8 -6 8 -7 18 -5 22
9 14 14 9 14 -14z m-3720 -43 c-7 -8 -17 -15 -23 -15 -6 0 -2 7 9 15 25 19 30
19 14 0z m-2543 -32 c1 -22 -1 -24 -8 -10 -6 9 -7 22 -4 27 9 14 10 13 12 -17z
m835 5 c-3 -11 3 -24 13 -32 16 -11 16 -13 1 -13 -9 0 -19 11 -22 24 -5 20 -9
22 -22 11 -13 -12 -14 -11 -2 8 16 26 39 27 32 2z m743 2 c-3 -5 -12 -10 -18
-10 -7 0 -6 4 3 10 19 12 23 12 15 0z m-45 -20 c0 -5 -2 -10 -4 -10 -3 0 -8 5
-11 10 -3 6 -1 10 4 10 6 0 11 -4 11 -10z m1042 -42 c-6 -6 -12 -4 -16 7 -3 9
-2 13 4 10 6 -3 11 2 11 12 1 17 2 17 6 -1 3 -10 1 -22 -5 -28z m-3713 -23 c0
-5 -4 -3 -9 5 -5 8 -9 22 -9 30 0 16 17 -16 18 -35z m2691 21 c0 -2 -8 -10
-17 -17 -16 -13 -17 -12 -4 4 13 16 21 21 21 13z m814 -4 c-5 -4 -12 -11 -15
-15 -3 -5 -9 -2 -12 5 -3 9 3 14 15 15 11 1 16 -1 12 -5z m2803 -24 c-3 -7 -5
-2 -5 12 0 14 2 19 5 13 2 -7 2 -19 0 -25z m-4279 -6 c-11 -14 -10 -15 7 -8
15 5 17 4 8 -5 -9 -9 -17 -7 -35 6 -21 15 -21 16 -3 13 12 -2 19 2 17 10 -1 8
2 11 8 7 8 -5 7 -12 -2 -23z m49 14 c0 -8 -6 -12 -15 -9 -11 5 -11 7 0 14 7 5
13 9 14 9 0 0 1 -6 1 -14z m504 -13 c-12 -20 -14 -14 -5 12 4 9 9 14 11 11 3
-2 0 -13 -6 -23z m64 7 c-3 -5 -1 -10 5 -10 6 0 8 -5 4 -11 -4 -8 -9 -7 -15 2
-7 12 -3 29 7 29 3 0 2 -4 -1 -10z m-15 -35 c0 -5 -5 -3 -10 5 -8 12 -10 10
-11 -10 0 -22 -1 -23 -8 -5 -9 23 9 50 21 31 4 -6 8 -15 8 -21z m837 -12 c-3
-10 -5 -2 -5 17 0 19 2 27 5 18 2 -10 2 -26 0 -35z m-3470 15 c-3 -8 -6 -5 -6
6 -1 11 2 17 5 13 3 -3 4 -12 1 -19z m3781 15 c-3 -16 15 -43 25 -36 6 3 7 1
3 -6 -4 -6 -12 -8 -18 -5 -7 5 -9 -2 -4 -22 5 -23 4 -26 -4 -11 -6 9 -8 27 -4
40 6 20 5 21 -11 7 -11 -8 -16 -10 -13 -5 2 6 8 18 11 28 6 16 19 25 15 10z
m-258 -48 c0 -8 -2 -15 -4 -15 -2 0 -6 7 -10 15 -3 8 -1 15 4 15 6 0 10 -7 10
-15z m-1010 -10 c0 -8 -2 -15 -4 -15 -2 0 -6 7 -10 15 -3 8 -1 15 4 15 6 0 10
-7 10 -15z m4877 -7 c-3 -8 -6 -5 -6 6 -1 11 2 17 5 13 3 -3 4 -12 1 -19z
m-5160 6 c-3 -3 -12 -4 -19 -1 -8 3 -5 6 6 6 11 1 17 -2 13 -5z m243 -10 c0
-8 -4 -12 -10 -9 -5 3 -10 10 -10 16 0 5 5 9 10 9 6 0 10 -7 10 -16z m3835 6
c-4 -6 -2 -16 3 -23 5 -7 9 -20 9 -29 0 -14 -3 -15 -14 -6 -8 6 -12 17 -9 25
3 7 1 13 -4 13 -6 0 -10 -5 -10 -12 0 -6 -3 -8 -7 -5 -3 4 2 16 12 27 19 21
30 27 20 10z m-4075 -16 c0 -1 -19 -2 -42 -2 -29 0 -37 3 -24 8 18 6 66 2 66
-6z m197 10 c-3 -3 -12 -4 -19 -1 -8 3 -5 6 6 6 11 1 17 -2 13 -5z m-2434 -44
c3 -11 1 -18 -4 -14 -5 3 -9 12 -9 20 0 20 7 17 13 -6z m2262 10 c3 -5 1 -10
-4 -10 -6 0 -11 5 -11 10 0 6 2 10 4 10 3 0 8 -4 11 -10z m5112 -12 c-3 -8 -6
-5 -6 6 -1 11 2 17 5 13 3 -3 4 -12 1 -19z m-6150 -30 c-3 -7 -5 -2 -5 12 0
14 2 19 5 13 2 -7 2 -19 0 -25z m5021 -33 c0 -37 -23 -51 -24 -14 -1 16 2 26
7 23 5 -3 9 0 9 5 0 6 2 11 4 11 2 0 4 -11 4 -25z m-4976 -17 c-8 -8 -9 -4 -5
13 4 13 8 18 11 10 2 -7 -1 -18 -6 -23z m44 -74 c-9 -6 -14 -14 -11 -17 3 -4
2 -4 -2 -1 -4 3 -8 22 -9 42 l-2 37 20 -25 c17 -22 18 -25 4 -36z m4890 12
c-1 -23 -18 -29 -33 -11 -5 4 -2 5 6 0 11 -6 13 -4 8 9 -4 10 -3 15 3 11 6 -3
10 -1 10 4 0 6 2 11 4 11 2 0 3 -11 2 -24z m-2429 -28 c-3 -7 -5 -2 -5 12 0
14 2 19 5 13 2 -7 2 -19 0 -25z m-412 -18 c1 -10 -2 -17 -6 -14 -4 2 -7 13 -6
24 2 23 10 17 12 -10z m-3334 -7 c-12 -20 -14 -14 -5 12 4 9 9 14 11 11 3 -2
0 -13 -6 -23z m7296 5 c-3 -8 -6 -5 -6 6 -1 11 2 17 5 13 3 -3 4 -12 1 -19z
m33 -13 c0 -5 -5 -3 -10 5 -5 8 -10 20 -10 25 0 6 5 3 10 -5 5 -8 10 -19 10
-25z m-6037 0 c-3 -9 -8 -14 -10 -11 -3 3 -2 9 2 15 9 16 15 13 8 -4z m4841
-3 c3 -5 -1 -9 -9 -9 -8 0 -12 4 -9 9 3 4 7 8 9 8 2 0 6 -4 9 -8z m-6097 -24
c-3 -8 -6 -5 -6 6 -1 11 2 17 5 13 3 -3 4 -12 1 -19z m3259 2 c0 -12 -4 -16
-9 -11 -5 5 -6 14 -3 20 10 15 12 14 12 -9z m-3273 -10 c3 -11 1 -18 -4 -14
-5 3 -9 12 -9 20 0 20 7 17 13 -6z m1292 10 c3 -5 1 -10 -4 -10 -6 0 -11 5
-11 10 0 6 2 10 4 10 3 0 8 -4 11 -10z m2018 -3 c3 -8 -1 -14 -8 -14 -7 0 -11
6 -8 14 3 7 6 13 8 13 2 0 5 -6 8 -13z m2762 -7 c-3 -5 -12 -10 -18 -10 -7 0
-6 4 3 10 19 12 23 12 15 0z m-39 -52 c-1 -33 -16 -44 -43 -34 -14 6 -12 11
12 36 16 17 30 30 30 30 1 0 2 -14 1 -32z m-4678 -8 c27 -35 22 -39 -9 -7 -20
20 -21 20 -15 2 5 -14 4 -17 -4 -9 -8 8 -5 44 4 44 1 0 12 -13 24 -30z m1877
9 c11 -16 1 -19 -13 -3 -7 8 -8 14 -3 14 5 0 13 -5 16 -11z m-15 -30 c0 -6 -4
-7 -10 -4 -5 3 -10 11 -10 16 0 6 5 7 10 4 6 -3 10 -11 10 -16z m472 -3 c7 4
8 2 4 -5 -4 -6 -12 -9 -17 -6 -5 4 -9 1 -9 -6 0 -7 -2 -10 -5 -7 -3 3 -2 13 2
24 4 11 8 13 11 6 2 -7 9 -9 14 -6z m-3658 -56 c10 -13 9 -13 -6 -1 -10 7 -18
21 -17 30 0 13 1 14 6 1 3 -8 11 -22 17 -30z m5920 22 c3 -5 -1 -9 -9 -9 -8 0
-12 4 -9 9 3 4 7 8 9 8 2 0 6 -4 9 -8z m-4506 -26 c14 -9 7 -26 -11 -25 -9 0
-8 2 1 6 6 2 10 9 7 13 -8 13 -36 0 -28 -14 3 -6 2 -7 -2 -3 -27 24 0 43 33
23z m2239 -18 c-3 -7 -5 -2 -5 12 0 14 2 19 5 13 2 -7 2 -19 0 -25z m3583 28
c0 -2 -7 -7 -16 -10 -8 -3 -12 -2 -9 4 6 10 25 14 25 6z m-1326 -17 c-4 -8 1
-9 17 -5 13 3 18 3 11 0 -6 -3 -9 -11 -6 -16 4 -6 3 -9 -2 -6 -5 3 -18 8 -29
12 -16 6 -17 9 -5 16 20 13 23 12 14 -1z m-58 -28 c0 -11 -4 -17 -8 -15 -4 3
-8 0 -8 -7 0 -7 -3 -10 -6 -7 -5 5 12 48 19 48 2 0 3 -9 3 -19z m-5796 -11 c0
-5 -2 -10 -4 -10 -3 0 -8 5 -11 10 -3 6 -1 10 4 10 6 0 11 -4 11 -10z m7157
-27 c-3 -10 -5 -4 -5 12 0 17 2 24 5 18 2 -7 2 -21 0 -30z m-4097 16 c0 8 2
12 5 9 3 -3 2 -13 -1 -22 -5 -14 -9 -15 -15 -4 -5 7 -9 18 -9 23 0 6 5 3 10
-5 8 -12 10 -12 10 -1z m2780 1 c0 -5 -2 -10 -4 -10 -3 0 -8 5 -11 10 -3 6 -1
10 4 10 6 0 11 -4 11 -10z m-5830 -20 c0 -5 -2 -10 -4 -10 -3 0 -8 5 -11 10
-3 6 -1 10 4 10 6 0 11 -4 11 -10z m5784 -16 c3 -8 2 -12 -4 -9 -6 3 -10 10
-10 16 0 14 7 11 14 -7z m-2795 -3 c10 -7 7 -9 -12 -8 -14 1 -23 5 -20 10 6 9
15 9 32 -2z m-3021 -32 c-3 -8 -7 -3 -11 10 -4 17 -3 21 5 13 5 -5 8 -16 6
-23z m42 27 c0 -3 -4 -8 -10 -11 -5 -3 -10 -1 -10 4 0 6 5 11 10 11 6 0 10 -2
10 -4z m2894 -21 c-4 -8 -10 -15 -14 -15 -4 0 -7 -10 -6 -22 1 -16 -5 -22 -23
-23 -22 -2 -23 -1 -6 12 11 7 13 13 6 13 -7 0 1 11 16 25 33 29 34 29 27 10z
m4224 -20 c-3 -3 -9 2 -12 12 -6 14 -5 15 5 6 7 -7 10 -15 7 -18z m-50 -21
c-3 -14 -5 -12 -10 9 -3 19 -2 25 4 19 6 -6 8 -18 6 -28z m-7111 -6 c-3 -8 -6
-5 -6 6 -1 11 2 17 5 13 3 -3 4 -12 1 -19z m1543 12 c-12 -8 -12 -10 -1 -10 8
0 12 -3 8 -6 -9 -9 -28 6 -22 17 4 5 12 9 18 9 7 0 6 -4 -3 -10z m2801 -4 c5
3 9 1 9 -4 0 -5 -9 -12 -20 -15 -12 -3 -18 -1 -14 5 4 6 -1 8 -15 3 -15 -4
-21 -2 -21 9 0 13 5 14 26 6 14 -6 30 -8 35 -4z m1346 8 c-3 -3 -12 -4 -19 -1
-8 3 -5 6 6 6 11 1 17 -2 13 -5z m-4180 -19 c0 -8 -4 -12 -9 -9 -5 3 -6 10 -3
15 9 13 12 11 12 -6z m5613 -62 c-11 -17 -11 -17 -6 0 3 10 7 26 7 35 1 15 2
15 6 0 2 -10 -1 -25 -7 -35z m-4307 20 c-7 -2 -19 -2 -25 0 -7 3 -2 5 12 5 14
0 19 -2 13 -5z m1476 -15 c0 -13 -3 -17 -6 -10 -2 6 -9 10 -14 6 -10 -6 -12 9
-2 19 13 14 23 7 22 -15z m217 -6 c-6 -6 -56 10 -56 18 0 5 13 3 30 -3 16 -6
28 -13 26 -15z m30 13 c19 -19 14 -19 -22 0 -21 11 -24 15 -11 15 10 0 25 -7
33 -15z m-2859 -1 c-3 -3 -12 -4 -19 -1 -8 3 -5 6 6 6 11 1 17 -2 13 -5z
m1147 -15 c-3 -6 0 -16 7 -21 12 -8 11 -9 -1 -5 -18 4 -27 37 -10 37 6 0 8 -5
4 -11z m2669 -10 c5 -3 2 -9 -5 -12 -9 -3 -14 3 -15 15 -1 11 1 16 5 12 4 -5
11 -12 15 -15z m44 15 c-3 -3 -12 -4 -19 -1 -8 3 -5 6 6 6 11 1 17 -2 13 -5z
m-3860 -10 c-3 -3 -12 -4 -19 -1 -8 3 -5 6 6 6 11 1 17 -2 13 -5z m1118 -23
c-3 -2 -11 1 -18 7 -8 7 -18 8 -22 4 -5 -4 -5 -1 -1 5 5 10 11 10 26 1 11 -7
17 -14 15 -17z m722 -3 c-3 -7 -5 -2 -5 12 0 14 2 19 5 13 2 -7 2 -19 0 -25z
m1923 22 c-8 -5 -19 -10 -25 -10 -5 0 -3 5 5 10 8 5 20 10 25 10 6 0 3 -5 -5
-10z m120 0 c-8 -5 -19 -10 -25 -10 -5 0 -3 5 5 10 8 5 20 10 25 10 6 0 3 -5
-5 -10z m-1085 -10 c-3 -5 -11 -10 -16 -10 -6 0 -7 5 -4 10 3 6 11 10 16 10 6
0 7 -4 4 -10z m85 0 c8 -5 11 -10 5 -10 -5 0 -17 5 -25 10 -8 5 -10 10 -5 10
6 0 17 -5 25 -10z m-280 -10 c0 -5 -2 -10 -4 -10 -3 0 -8 5 -11 10 -3 6 -1 10
4 10 6 0 11 -4 11 -10z m2824 -25 c3 -8 1 -15 -4 -15 -6 0 -10 7 -10 15 0 8 2
15 4 15 2 0 6 -7 10 -15z m-3577 -17 c-3 -8 -6 -5 -6 6 -1 11 2 17 5 13 3 -3
4 -12 1 -19z m1334 15 c-11 -5 -11 -7 0 -15 11 -7 9 -8 -4 -4 -10 3 -26 6 -35
7 -10 1 -7 4 8 9 28 9 52 11 31 3z m-4790 -57 c17 -18 9 -26 -9 -8 -12 11 -16
26 -13 42 l5 25 4 -25 c2 -14 8 -29 13 -34z m1878 38 c2 -2 -6 -4 -18 -4 -14
0 -20 -4 -15 -11 3 -6 -5 -3 -20 6 -14 10 -26 19 -26 22 0 4 73 -7 79 -13z
m591 6 c8 -5 11 -10 5 -10 -5 0 -17 5 -25 10 -8 5 -10 10 -5 10 6 0 17 -5 25
-10z m2560 0 c-13 -8 -12 -10 4 -10 11 0 17 -3 13 -6 -3 -3 -15 -3 -28 1 -17
6 -19 9 -8 16 8 5 19 9 24 9 6 0 3 -5 -5 -10z m67 4 c-3 -3 -12 -4 -19 -1 -8
3 -5 6 6 6 11 1 17 -2 13 -5z m-2674 -11 c-7 -2 -19 -2 -25 0 -7 3 -2 5 12 5
14 0 19 -2 13 -5z m-335 -18 c-2 -1 -21 -5 -43 -9 -38 -6 -39 -6 -15 7 14 7
33 11 43 9 10 -3 16 -6 15 -7z m152 11 c0 -3 -4 -8 -10 -11 -5 -3 -10 -1 -10
4 0 6 5 11 10 11 6 0 10 -2 10 -4z m2873 -3 c-7 -2 -21 -2 -30 0 -10 3 -4 5
12 5 17 0 24 -2 18 -5z m-5056 -25 c-3 -8 -6 -5 -6 6 -1 11 2 17 5 13 3 -3 4
-12 1 -19z m1936 15 c-7 -2 -19 -2 -25 0 -7 3 -2 5 12 5 14 0 19 -2 13 -5z
m504 1 c-3 -3 -12 -4 -19 -1 -8 3 -5 6 6 6 11 1 17 -2 13 -5z m949 -30 c-19
-19 -21 -11 -4 16 7 11 14 16 16 10 2 -5 -4 -17 -12 -26z m764 21 c11 -13 10
-14 -4 -9 -9 3 -16 10 -16 15 0 13 6 11 20 -6z m2770 -9 c0 -2 -7 -9 -15 -16
-13 -11 -14 -10 -9 4 5 14 24 23 24 12z m23 -11 c-3 -9 -8 -14 -10 -11 -3 3
-2 9 2 15 9 16 15 13 8 -4z m-6981 -37 c-7 -7 -12 -8 -12 -2 0 14 12 26 19 19
2 -3 -1 -11 -7 -17z m3448 12 c0 -5 -5 -10 -11 -10 -5 0 -7 5 -4 10 3 6 8 10
11 10 2 0 4 -4 4 -10z m3520 -10 c0 -5 -2 -10 -4 -10 -3 0 -8 5 -11 10 -3 6
-1 10 4 10 6 0 11 -4 11 -10z m-6953 -29 c0 -11 -5 -18 -9 -15 -4 3 -5 11 -1
19 7 21 12 19 10 -4z m6945 5 c7 4 8 2 4 -5 -9 -13 -26 -5 -25 12 0 9 2 8 6
-1 2 -6 10 -9 15 -6z m-6942 -57 c0 -6 -4 -7 -10 -4 -5 3 -10 11 -10 16 0 6 5
7 10 4 6 -3 10 -11 10 -16z m6920 -43 c0 -3 -4 -8 -10 -11 -5 -3 -10 -1 -10 4
0 6 5 11 10 11 6 0 10 -2 10 -4z m-6859 -85 c-13 -8 -13 -12 -1 -28 13 -17 13
-17 -4 -1 -19 16 -15 38 7 38 8 0 7 -4 -2 -9z m6815 -2 c3 -6 -2 -18 -12 -27
-17 -16 -17 -16 -4 1 12 16 12 20 -1 28 -9 5 -10 9 -2 9 6 0 15 -5 19 -11z
m-6788 -74 c-3 -3 -9 2 -12 12 -6 14 -5 15 5 6 7 -7 10 -15 7 -18z m4006 13
c-3 -4 -11 -5 -19 -1 -21 7 -19 12 4 10 11 0 18 -5 15 -9z m-737 -40 c-3 -8
-6 -5 -6 6 -1 11 2 17 5 13 3 -3 4 -12 1 -19z m3477 4 c3 -5 -1 -9 -9 -9 -8 0
-12 4 -9 9 3 4 7 8 9 8 2 0 6 -4 9 -8z m-3504 -22 c7 12 9 11 8 -5 -1 -12 -9
-21 -18 -21 -9 0 -17 9 -18 21 -1 16 1 17 8 5 9 -13 11 -13 20 0z m738 -15
c-6 -14 -13 -23 -15 -21 -5 5 15 46 22 46 3 0 -1 -11 -7 -25z m2729 -23 c-19
-20 -23 -37 -7 -27 6 4 7 -1 3 -11 -5 -15 -7 -15 -15 0 -6 11 -3 24 9 40 10
13 20 22 22 20 2 -2 -3 -12 -12 -22z m-6654 -33 c-8 -8 -13 -7 -18 2 -5 8 -4
10 3 5 7 -4 12 -2 12 5 0 7 3 9 7 6 4 -4 2 -12 -4 -18z m3934 -1 c-3 -8 -6 -5
-6 6 -1 11 2 17 5 13 3 -3 4 -12 1 -19z m2683 -8 c4 -28 0 -41 -11 -34 -8 4
-7 9 2 15 8 5 9 9 4 9 -6 0 -11 9 -11 20 0 22 13 14 16 -10z m-3448 -22 c-6
-6 -7 0 -4 19 5 21 7 23 10 9 2 -10 0 -22 -6 -28z m-3143 11 c-11 -7 -11 -9
-1 -9 7 0 10 -5 6 -11 -4 -8 -9 -7 -14 2 -10 16 -1 41 12 33 6 -4 5 -10 -3
-15z m3117 -85 c-3 -8 -11 -14 -18 -13 -10 0 -10 2 0 6 6 2 13 23 14 46 1 39
2 39 5 9 3 -19 2 -40 -1 -48z m770 29 c-4 -9 -1 -20 5 -24 7 -4 1 -6 -13 -6
-24 2 -24 3 -9 24 19 27 25 29 17 6z m-745 -36 c-10 -9 -11 -8 -5 6 3 10 9 15
12 12 3 -3 0 -11 -7 -18z m3389 -41 c0 -3 -4 -8 -10 -11 -5 -3 -10 -1 -10 4 0
6 5 11 10 11 6 0 10 -2 10 -4z m-2684 -86 c-1 -16 -6 -32 -13 -34 -8 -3 -9 4
-2 27 5 18 9 33 9 34 0 2 2 3 4 3 2 0 3 -13 2 -30z m-752 -26 c3 -8 2 -12 -4
-9 -6 3 -10 10 -10 16 0 14 7 11 14 -7z m3363 -21 c0 -8 -6 -9 -19 -2 -14 8
-18 6 -18 -7 0 -10 -3 -15 -6 -11 -4 3 -4 12 -1 19 6 17 44 18 44 1z m-3373
-57 c-3 -21 -8 -35 -11 -32 -2 2 -1 20 3 40 3 21 8 35 11 32 2 -2 1 -20 -3
-40z m-20 -71 c-4 -17 -2 -25 7 -25 7 0 10 -2 7 -5 -3 -3 -12 -3 -21 1 -13 5
-14 10 -5 30 14 31 20 31 12 -1z m-40 -50 c-4 -8 -8 -15 -10 -15 -2 0 -4 7 -4
15 0 8 4 15 10 15 5 0 7 -7 4 -15z m-2698 -57 c4 4 3 0 -4 -10 -9 -11 -10 -18
-2 -23 5 -3 10 -11 10 -18 0 -14 -34 33 -36 51 -2 9 1 10 10 3 7 -6 17 -7 22
-3z m3444 2 c0 -5 -5 -10 -11 -10 -5 0 -7 5 -4 10 3 6 8 10 11 10 2 0 4 -4 4
-10z m-3405 -79 c3 -5 2 -12 -3 -15 -5 -3 -9 1 -9 9 0 17 3 19 12 6z m31 -18
c1 -10 5 -27 9 -38 6 -17 5 -16 -10 3 -9 13 -14 29 -11 37 7 20 12 19 12 -2z
m5801 -18 c-7 -7 -16 -11 -21 -8 -4 3 -3 9 4 13 8 5 9 13 4 21 -7 12 -5 12 9
1 13 -11 14 -17 4 -27z m-21 -40 c-1 -8 -5 -17 -8 -21 -5 -4 -4 16 1 34 3 9 9
-1 7 -13z m-5729 -1 c-3 -4 -2 -16 4 -28 9 -18 8 -19 -3 -5 -7 9 -18 14 -25
12 -6 -2 -14 1 -18 6 -3 7 0 8 9 5 9 -3 16 -1 16 5 0 6 5 11 12 11 6 0 8 -3 5
-6z m39 -6 c5 -7 3 -8 -6 -3 -10 6 -12 4 -6 -11 5 -14 4 -16 -5 -7 -6 6 -8 16
-5 22 9 14 13 14 22 -1z m5625 -20 c-10 -11 -11 -9 -5 6 6 15 4 17 -6 11 -9
-6 -11 -4 -5 4 5 9 10 10 18 2 8 -8 7 -14 -2 -23z m39 23 c0 -6 -4 -12 -8 -15
-5 -3 -9 1 -9 9 0 8 4 15 9 15 4 0 8 -4 8 -9z m-5666 -50 c3 -5 -2 -15 -12
-22 -15 -12 -16 -12 -5 2 7 9 10 19 6 22 -3 4 -4 7 0 7 3 0 8 -4 11 -9z m5623
-6 c0 -8 -4 -12 -9 -9 -5 3 -6 10 -3 15 9 13 12 11 12 -6z m-5567 -29 c17 1
28 -1 26 -5 -7 -11 -60 -5 -62 8 -1 6 -1 8 2 3 2 -4 18 -7 34 -6z m5535 -6
c-3 -5 -13 -6 -21 -3 -12 4 -13 8 -3 14 15 9 32 2 24 -11z m-5538 -40 c6 0 16
-6 23 -14 6 -8 19 -12 28 -9 11 3 13 2 6 -4 -6 -4 -14 -15 -17 -23 -4 -11 -6
-10 -6 5 -1 17 -3 18 -12 5 -9 -13 -10 -12 -5 3 4 12 -1 20 -17 26 -13 5 -29
17 -37 27 -14 18 -14 18 6 2 11 -10 25 -18 31 -18z m5538 10 c-10 -11 -22 -20
-28 -20 -5 0 1 9 14 20 31 25 37 25 14 0z m-49 -39 c0 -16 -4 -18 -21 -9 -27
14 -34 23 -13 15 10 -3 20 -2 23 3 9 14 11 12 11 -9z m-5389 -13 c-3 -8 -6 -5
-6 6 -1 11 2 17 5 13 3 -3 4 -12 1 -19z m5323 12 c0 -5 -5 -10 -11 -10 -5 0
-7 5 -4 10 3 6 8 10 11 10 2 0 4 -4 4 -10z m-5340 -14 c0 -2 -7 -7 -16 -10 -8
-3 -12 -2 -9 4 6 10 25 14 25 6z m5365 -6 c3 -5 1 -10 -4 -10 -6 0 -11 5 -11
10 0 6 2 10 4 10 3 0 8 -4 11 -10z m-5342 -47 c-4 -9 -2 -14 3 -10 5 3 10 -6
11 -21 0 -15 -1 -19 -4 -9 -2 9 -9 14 -15 11 -7 -4 -8 -2 -4 4 4 7 2 12 -5 12
-8 0 -8 4 1 15 16 20 21 19 13 -2z m5308 -6 c-6 -8 -9 -16 -6 -19 3 -3 -3 -11
-12 -19 -15 -11 -16 -11 -6 1 10 11 10 17 0 29 -9 11 -9 13 0 8 6 -4 14 -3 18
3 3 5 9 10 12 10 3 0 0 -6 -6 -13z m-76 -15 c-3 -3 -11 0 -18 7 -9 10 -8 11 6
5 10 -3 15 -9 12 -12z m-5165 -26 c0 -3 -4 -8 -10 -11 -5 -3 -10 -1 -10 4 0 6
5 11 10 11 6 0 10 -2 10 -4z m5124 -45 c3 -5 -2 -15 -12 -22 -16 -13 -16 -13
-2 5 14 18 13 19 -3 13 -11 -4 -16 -3 -12 3 8 12 22 13 29 1z m40 1 c3 -5 -1
-9 -9 -9 -8 0 -12 4 -9 9 3 4 7 8 9 8 2 0 6 -4 9 -8z m-5071 -23 c-8 -8 -13
-7 -18 2 -5 8 -4 10 3 5 7 -4 12 -2 12 5 0 7 3 9 7 6 4 -4 2 -12 -4 -18z m-39
3 c2 -4 -4 -8 -14 -8 -10 0 -16 4 -14 8 3 4 9 8 14 8 5 0 11 -4 14 -8z m5029
-7 c4 -8 1 -17 -6 -21 -7 -4 -9 -4 -5 1 4 4 3 14 -3 22 -7 8 -8 13 -1 13 5 0
12 -7 15 -15z m-4954 -52 c-3 -18 2 -24 14 -16 21 13 41 13 28 0 -13 -13 -15
-31 -3 -23 5 3 9 -1 9 -9 0 -13 -3 -13 -17 0 -10 9 -24 13 -33 10 -8 -4 -18
-2 -22 4 -4 7 1 8 12 4 15 -6 16 -4 6 9 -7 8 -10 18 -6 21 8 9 13 9 12 0z
m4909 -21 c-11 -13 -10 -15 5 -9 11 4 16 3 12 -4 -4 -6 -14 -8 -22 -4 -9 3
-23 -1 -33 -10 -14 -13 -17 -13 -17 0 0 8 4 12 9 9 12 -8 10 10 -3 23 -9 9 -7
11 7 8 11 -2 20 -4 22 -4 7 -3 17 5 14 12 -1 5 2 6 8 2 8 -5 7 -12 -2 -23z
m-4818 -57 c0 -2 -6 -8 -13 -14 -10 -8 -14 -7 -14 2 0 8 6 14 14 14 7 0 13 -1
13 -2z m4747 -12 c0 -9 -4 -10 -14 -2 -7 6 -13 12 -13 14 0 1 6 2 13 2 8 0 14
-6 14 -14z m-49 -38 c-3 -3 -9 2 -12 12 -6 14 -5 15 5 6 7 -7 10 -15 7 -18z
m-4664 -1 c3 -8 2 -12 -4 -9 -6 3 -10 10 -10 16 0 14 7 11 14 -7z m70 -36 c-3
-4 0 -8 6 -8 7 0 5 -6 -4 -15 -20 -20 -32 -19 -15 2 12 15 12 16 -3 10 -16 -6
-33 5 -23 14 8 8 44 5 39 -3z m4543 -3 c1 -11 -17 -8 -30 4 -4 4 0 7 10 6 10
0 19 -5 20 -10z m-97 -75 c0 -5 -4 -10 -10 -10 -5 0 -10 5 -10 10 0 6 5 10 10
10 6 0 10 -4 10 -10z m-54 -45 c-17 -18 -42 -20 -52 -4 -4 7 0 9 14 5 11 -4
23 -2 27 4 3 5 11 10 16 10 6 0 4 -7 -5 -15z m-4145 -82 c13 -16 12 -17 -3 -4
-17 13 -22 21 -14 21 2 0 10 -8 17 -17z m4039 13 c0 -2 -8 -10 -17 -17 -16
-13 -17 -12 -4 4 13 16 21 21 21 13z m-3904 -55 c2 -7 0 -7 -3 -1 -3 8 -9 7
-19 -1 -11 -9 -14 -9 -14 0 0 7 -5 9 -12 5 -6 -4 -8 -3 -5 3 8 13 50 9 53 -6z
m31 -11 c-2 -23 -10 -17 -12 10 -1 10 2 17 6 14 4 -2 7 -13 6 -24z m3698 10
c-1 -11 -4 -22 -7 -25 -4 -5 -4 34 1 43 4 8 7 -1 6 -18z m98 7 c-3 -5 -14 -7
-24 -4 -10 3 -20 0 -21 -5 -2 -6 -9 -4 -15 3 -9 11 -4 14 27 15 22 0 37 -4 33
-9z m-3833 -37 c8 -5 11 -10 5 -10 -5 0 -17 5 -25 10 -8 5 -10 10 -5 10 6 0
17 -5 25 -10z m3780 0 c-8 -5 -19 -10 -25 -10 -5 0 -3 5 5 10 8 5 20 10 25 10
6 0 3 -5 -5 -10z m-3597 -39 c12 -2 8 -19 -7 -24 -10 -4 -13 -1 -9 9 3 7 1 14
-5 14 -6 0 -12 -5 -14 -12 -3 -8 -6 -7 -10 4 -6 14 4 16 45 9z m3440 -6 c-3
-9 -8 -14 -10 -11 -3 3 -2 9 2 15 9 16 15 13 8 -4z m-3433 -60 c0 -8 -4 -15
-10 -15 -5 0 -7 7 -4 15 4 8 8 15 10 15 2 0 4 -7 4 -15z m3382 -17 c-6 -6 -12
-6 -17 3 -5 8 -4 10 3 5 7 -4 12 0 13 11 0 12 2 13 6 5 3 -8 1 -18 -5 -24z
m-87 3 c-3 -2 3 -13 12 -23 16 -18 16 -18 -2 -12 -14 6 -16 4 -10 -6 5 -9 4
-11 -4 -6 -6 4 -8 12 -5 18 4 6 -1 17 -11 24 -16 12 -16 13 3 11 12 0 19 -3
17 -6z m-3210 -13 c3 -3 -3 -11 -12 -19 -10 -7 -15 -9 -11 -5 4 5 0 14 -9 21
-14 11 -13 12 5 10 12 -1 24 -4 27 -7z m60 -8 c3 -5 1 -10 -4 -10 -6 0 -11 5
-11 10 0 6 2 10 4 10 3 0 8 -4 11 -10z m3104 -9 c7 -5 12 -13 10 -18 -2 -5
-12 -1 -21 9 -19 19 -13 24 11 9z m-3135 -7 c9 -3 16 -11 16 -16 0 -6 -6 -5
-15 2 -8 6 -20 8 -26 4 -8 -4 -9 -3 -5 4 8 14 9 14 30 6z m191 -44 c3 -6 -1
-7 -9 -4 -18 7 -21 14 -7 14 6 0 13 -4 16 -10z m2790 0 c-3 -5 -12 -10 -18
-10 -7 0 -6 4 3 10 19 12 23 12 15 0z m-2815 -35 c33 -19 21 -19 -21 0 -19 8
-27 14 -19 14 8 0 26 -6 40 -14z m2840 0 c-14 -8 -29 -14 -35 -14 -5 0 1 6 15
14 14 8 30 14 35 14 6 0 -1 -6 -15 -14z m-2572 -58 c-8 -9 -21 -11 -33 -6 -19
7 -19 8 2 8 12 1 25 6 28 12 4 6 9 8 12 5 3 -3 -1 -11 -9 -19z m2287 13 c3 -5
1 -10 -4 -10 -6 0 -11 5 -11 10 0 6 2 10 4 10 3 0 8 -4 11 -10z m153 -15 c-3
-3 -9 2 -12 12 -6 14 -5 15 5 6 7 -7 10 -15 7 -18z m-52 -2 c-15 -8 -31 -11
-36 -8 -18 11 -2 22 31 22 l31 0 -26 -14z m-68 0 c-10 -2 -18 -9 -18 -15 0 -6
-3 -9 -6 -5 -10 10 6 27 24 26 15 -1 15 -2 0 -6z m17 -23 c-3 -5 -11 -10 -16
-10 -6 0 -7 5 -4 10 3 6 11 10 16 10 6 0 7 -4 4 -10z m-2135 -40 c-8 -5 -19
-10 -25 -10 -5 0 -3 5 5 10 8 5 20 10 25 10 6 0 3 -5 -5 -10z m1850 0 c12 -8
11 -10 -7 -10 -13 0 -23 5 -23 10 0 13 11 13 30 0z m-1790 -39 c0 -3 -11 -7
-24 -7 -20 -2 -22 1 -13 11 11 12 37 10 37 -4z m1780 4 c-7 -9 -15 -13 -19
-10 -3 3 1 10 9 15 21 14 24 12 10 -5z m-1553 -41 c-3 -3 -12 -4 -19 -1 -8 3
-5 6 6 6 11 1 17 -2 13 -5z m1253 -14 c0 -5 -4 -10 -9 -10 -6 0 -13 5 -16 10
-3 6 1 10 9 10 9 0 16 -4 16 -10z m77 -6 c-3 -3 -12 -4 -19 -1 -8 3 -5 6 6 6
11 1 17 -2 13 -5z m-1164 -21 c-7 -2 -21 -2 -30 0 -10 3 -4 5 12 5 17 0 24 -2
18 -5z m1010 0 c-7 -2 -21 -2 -30 0 -10 3 -4 5 12 5 17 0 24 -2 18 -5z"/>
<path d="M5970 4860 c0 -5 5 -10 11 -10 5 0 7 5 4 10 -3 6 -8 10 -11 10 -2 0
-4 -4 -4 -10z"/>
<path d="M5260 4363 c-14 -2 -32 -7 -40 -10 -8 -3 -24 -7 -35 -8 -51 -8 -74
-24 -69 -48 5 -30 -16 -50 -59 -53 l-32 -3 28 11 c15 5 25 14 22 18 -3 5 -1
12 5 15 6 4 9 2 8 -3 -2 -6 2 -11 7 -11 6 -1 11 8 11 19 1 11 -1 20 -3 20 -8
0 -48 -23 -63 -36 -8 -8 -30 -26 -48 -40 -20 -16 -31 -33 -28 -41 3 -8 2 -12
-3 -9 -5 3 -14 -1 -21 -9 -7 -8 -9 -15 -4 -15 4 0 -2 -9 -13 -20 -43 -39 -109
-190 -91 -208 6 -6 6 -12 -3 -17 -8 -6 -10 -4 -4 5 6 9 4 11 -4 5 -7 -4 -11
-16 -8 -26 3 -11 2 -17 -3 -14 -9 6 -33 -82 -25 -95 3 -5 1 -11 -5 -15 -5 -3
-10 -16 -10 -28 -1 -12 -13 -68 -29 -124 l-28 -103 36 -27 c78 -60 100 -73 95
-55 -2 9 1 7 7 -5 12 -23 44 -39 68 -34 7 1 10 -2 7 -7 -3 -6 1 -13 10 -16 23
-9 26 -8 19 7 -4 6 0 5 7 -4 22 -27 82 -48 102 -37 10 5 20 7 23 4 4 -3 1 -6
-6 -6 -34 0 8 -20 71 -35 145 -33 349 -8 412 50 29 27 42 32 30 13 -4 -7 7 -2
24 11 18 12 32 27 32 32 0 6 4 8 8 5 4 -2 28 16 52 42 25 25 38 42 30 37 -9
-6 -4 0 10 12 14 13 21 23 16 23 -6 0 -1 7 10 16 10 8 14 13 7 10 -6 -4 -15
-2 -18 4 -4 6 -3 10 2 9 22 -4 34 4 48 32 13 24 14 34 4 45 -6 8 -9 17 -5 21
3 3 6 1 6 -5 0 -7 5 -12 11 -12 5 0 8 4 5 9 -4 5 -1 11 5 13 6 2 11 20 12 41
0 20 5 37 9 37 14 0 9 153 -7 214 -17 65 -68 162 -84 159 -6 -2 -8 4 -5 12 4
9 -16 35 -52 70 -55 52 -84 70 -68 43 6 -10 4 -10 -7 0 -7 6 -17 12 -22 12 -4
0 -5 -6 -2 -12 4 -7 0 -5 -8 4 -12 16 -16 16 -36 1 -16 -10 -26 -12 -33 -5 -7
7 -4 10 8 9 11 -1 18 3 17 9 -2 11 49 10 68 -1 5 -4 9 -1 9 4 0 10 -14 15 -32
12 -5 0 -8 4 -8 10 0 5 -4 7 -10 4 -5 -3 -10 -2 -10 3 0 15 -91 50 -161 61
-64 11 -112 12 -159 4z m-20 -33 c-8 -5 -19 -10 -25 -10 -5 0 -3 5 5 10 8 5
20 10 25 10 6 0 3 -5 -5 -10z m93 3 c-7 -2 -19 -2 -25 0 -7 3 -2 5 12 5 14 0
19 -2 13 -5z m211 -63 c-6 -5 -24 21 -24 34 0 6 6 1 14 -10 8 -10 12 -21 10
-24z m-509 -65 c-1 -14 -5 -28 -8 -31 -3 -4 -4 7 -2 22 4 35 4 34 9 34 2 0 3
-11 1 -25z m-25 -6 c0 -6 -4 -8 -9 -5 -5 4 -11 1 -13 -6 -3 -8 -6 -7 -10 3 -4
10 1 15 13 16 10 1 19 -3 19 -8z m690 3 c0 -5 -7 -9 -15 -9 -8 0 -12 4 -9 9 3
4 9 8 15 8 5 0 9 -4 9 -8z m-750 -112 c0 -5 -5 -10 -11 -10 -5 0 -7 5 -4 10 3
6 8 10 11 10 2 0 4 -4 4 -10z m830 -1 c0 -5 5 -7 10 -4 6 3 10 1 10 -4 0 -16
-16 -13 -30 4 -9 10 -9 15 -1 15 6 0 11 -5 11 -11z m-920 -99 c-5 -22 -8 -27
-9 -13 -1 21 9 56 14 51 2 -2 0 -19 -5 -38z m13 -77 c-3 -7 -6 -13 -8 -13 -2
0 -5 6 -8 13 -3 8 1 14 8 14 7 0 11 -6 8 -14z m977 -60 c-11 -17 -11 -17 -6 0
3 10 6 24 7 30 0 9 2 9 5 0 3 -7 0 -20 -6 -30z m-1029 -6 c-10 -9 -11 -8 -5 6
3 10 9 15 12 12 3 -3 0 -11 -7 -18z m1039 -47 c0 -5 -5 -10 -11 -10 -5 0 -7 5
-4 10 3 6 8 10 11 10 2 0 4 -4 4 -10z m-1043 -36 c-3 -3 -12 -4 -19 -1 -8 3
-5 6 6 6 11 1 17 -2 13 -5z m954 -121 c-12 -20 -14 -14 -5 12 4 9 9 14 11 11
3 -2 0 -13 -6 -23z m22 -36 c7 3 8 2 4 -2 -14 -16 -36 -14 -29 3 4 10 7 12 10
4 2 -7 9 -9 15 -5z m-1006 -49 c-3 -8 -6 -5 -6 6 -1 11 2 17 5 13 3 -3 4 -12
1 -19z m-20 -44 c-3 -3 -12 -4 -19 -1 -8 3 -5 6 6 6 11 1 17 -2 13 -5z m29
-12 c-3 -3 0 -12 7 -21 10 -14 10 -14 -4 -4 -9 7 -20 9 -25 5 -4 -4 -3 0 4 9
6 9 8 20 4 24 -4 5 -1 5 6 1 7 -5 11 -11 8 -14z m41 -8 c-3 -3 -12 -4 -19 -1
-8 3 -5 6 6 6 11 1 17 -2 13 -5z m8 -24 c-3 -5 -12 -10 -18 -10 -7 0 -6 4 3
10 19 12 23 12 15 0z m63 -44 c-7 -8 -15 -12 -17 -11 -5 6 10 25 20 25 5 0 4
-6 -3 -14z m659 8 c-3 -3 -12 -4 -19 -1 -8 3 -5 6 6 6 11 1 17 -2 13 -5z m54
-7 c-6 -8 -8 -16 -5 -19 3 -3 1 -9 -4 -12 -6 -3 -9 0 -8 6 2 16 15 38 23 38 3
0 0 -6 -6 -13z m-180 -84 c13 -17 13 -17 -6 -3 -11 8 -22 16 -24 17 -2 2 0 3
6 3 6 0 17 -8 24 -17z m93 7 c-3 -2 -22 -5 -42 -6 -27 -2 -31 0 -17 6 21 8 67
8 59 0z m-250 -10 c-6 -6 -28 -13 -50 -15 l-39 -5 45 14 c25 7 47 14 50 15 2
0 -1 -4 -6 -9z m86 0 c0 -6 12 -8 28 -5 15 3 20 2 12 -1 -8 -4 -24 -14 -34
-23 -13 -11 -17 -12 -11 -2 5 9 2 19 -10 28 -17 12 -17 13 -2 13 9 0 17 -5 17
-10z m-205 -10 c-3 -5 -14 -10 -23 -9 -14 0 -13 2 3 9 27 11 27 11 20 0z m168
-27 c-7 -2 -19 -2 -25 0 -7 3 -2 5 12 5 14 0 19 -2 13 -5z"/>
<path d="M1450 3150 c0 -5 5 -10 11 -10 5 0 7 5 4 10 -3 6 -8 10 -11 10 -2 0
-4 -4 -4 -10z"/>
<path d="M6195 2980 c-4 -6 3 -10 14 -10 25 0 27 6 6 13 -8 4 -17 2 -20 -3z"/>
<path d="M762 5938 c-17 -17 -15 -27 7 -25 10 0 18 7 17 14 -3 20 -11 24 -24
11z"/>
</g>
</svg>
